<?xml version="1.0" encoding="utf-8" standalone="no"?>
<!DOCTYPE svg PUBLIC "-//W3C//DTD SVG 1.1//EN"
  "http://www.w3.org/Graphics/SVG/1.1/DTD/svg11.dtd">
<svg xmlns:xlink="http://www.w3.org/1999/xlink" width="701.607688pt" height="65.607421pt" viewBox="0 0 701.607688 65.607421" xmlns="http://www.w3.org/2000/svg" version="1.1">
 <metadata>
  <rdf:RDF xmlns:dc="http://purl.org/dc/elements/1.1/" xmlns:cc="http://creativecommons.org/ns#" xmlns:rdf="http://www.w3.org/1999/02/22-rdf-syntax-ns#">
   <cc:Work>
    <dc:type rdf:resource="http://purl.org/dc/dcmitype/StillImage"/>
    <dc:date>2025-03-29T11:42:56.728961</dc:date>
    <dc:format>image/svg+xml</dc:format>
    <dc:creator>
     <cc:Agent>
      <dc:title>Matplotlib v3.10.1, https://matplotlib.org/</dc:title>
     </cc:Agent>
    </dc:creator>
   </cc:Work>
  </rdf:RDF>
 </metadata>
 <defs>
  <style type="text/css">*{stroke-linejoin: round; stroke-linecap: butt}</style>
 </defs>
 <g id="figure_1">
  <g id="patch_1">
   <path d="M 0 65.607421 
L 701.607688 65.607421 
L 701.607688 0 
L 0 0 
z
" style="fill: #ffffff"/>
  </g>
  <g id="legend_1">
   <g id="patch_2">
    <path d="M 2.8 65.607421 
L 698.807688 65.607421 
Q 701.607688 65.607421 701.607688 62.807421 
L 701.607688 2.8 
Q 701.607688 -0 698.807688 -0 
L 2.8 -0 
Q -0 -0 -0 2.8 
L -0 62.807421 
Q -0 65.607421 2.8 65.607421 
z
" style="fill: #ffffff; opacity: 0.8; stroke: #cccccc; stroke-linejoin: miter"/>
   </g>
   <g id="line2d_1">
    <path d="M 5.6 11.160772 
L 19.6 11.160772 
L 33.6 11.160772 
" style="fill: none; stroke-dasharray: 5.55,2.4; stroke-dashoffset: 0; stroke: #808080; stroke-width: 1.5"/>
    <defs>
     <path id="m051d467408" d="M 0 3 
C 0.795609 3 1.55874 2.683901 2.12132 2.12132 
C 2.683901 1.55874 3 0.795609 3 0 
C 3 -0.795609 2.683901 -1.55874 2.12132 -2.12132 
C 1.55874 -2.683901 0.795609 -3 0 -3 
C -0.795609 -3 -1.55874 -2.683901 -2.12132 -2.12132 
C -2.683901 -1.55874 -3 -0.795609 -3 0 
C -3 0.795609 -2.683901 1.55874 -2.12132 2.12132 
C -1.55874 2.683901 -0.795609 3 0 3 
z
" style="stroke: #808080"/>
    </defs>
    <g>
     <use xlink:href="#m051d467408" x="19.6" y="11.160772" style="fill: #808080; stroke: #808080"/>
    </g>
   </g>
   <g id="text_1">
    <!-- Best Case (Unsync.) -->
    <g transform="translate(44.8 16.060772) scale(0.14 -0.14)">
     <defs>
      <path id="CMSS17-42" d="M 570 4416 
L 570 0 
L 2163 0 
C 3034 0 3667 574 3667 1200 
C 3667 1685 3251 2176 2502 2317 
C 3334 2558 3501 3040 3501 3313 
C 3501 3883 2874 4416 1997 4416 
L 570 4416 
z
M 1088 2496 
L 1088 4059 
L 1824 4059 
C 2483 4059 3002 3724 3002 3306 
C 3002 2926 2592 2496 1766 2496 
L 1088 2496 
z
M 1088 357 
L 1088 2107 
L 1939 2107 
C 2630 2107 3162 1679 3162 1206 
C 3162 772 2694 357 1984 357 
L 1088 357 
z
" transform="scale(0.015625)"/>
      <path id="CMSS17-65" d="M 2502 1377 
C 2502 1590 2490 2003 2285 2345 
C 2061 2713 1696 2816 1421 2816 
C 755 2816 192 2188 192 1375 
C 192 582 774 -64 1510 -64 
C 1798 -64 2150 19 2470 248 
C 2470 274 2458 414 2451 420 
C 2451 433 2432 630 2432 656 
C 2125 407 1773 325 1517 325 
C 1107 325 666 667 646 1377 
L 2502 1377 
z
M 698 1728 
C 781 2084 1062 2421 1421 2421 
C 1517 2421 1965 2421 2080 1728 
L 698 1728 
z
" transform="scale(0.015625)"/>
      <path id="CMSS17-73" d="M 2061 2627 
C 1683 2807 1389 2807 1197 2807 
C 742 2807 198 2648 198 2003 
C 198 1359 902 1218 1094 1179 
C 1389 1122 1715 1058 1715 740 
C 1715 337 1254 337 1171 337 
C 915 337 563 407 243 638 
L 166 210 
C 531 0 883 -64 1178 -64 
C 1965 -64 2163 416 2163 781 
C 2163 1094 1984 1305 1862 1401 
C 1651 1568 1574 1587 1050 1696 
C 960 1709 646 1779 646 2066 
C 646 2432 1050 2432 1139 2432 
C 1555 2432 1811 2303 1984 2208 
L 2061 2627 
z
" transform="scale(0.015625)"/>
      <path id="CMSS17-74" d="M 1069 2368 
L 1901 2368 
L 1901 2737 
L 1069 2737 
L 1069 3520 
L 614 3520 
L 614 2737 
L 109 2737 
L 109 2368 
L 602 2368 
L 602 749 
C 602 384 685 -64 1107 -64 
C 1427 -64 1722 25 2003 172 
L 1901 548 
C 1747 414 1562 337 1363 337 
C 1082 337 1069 696 1069 856 
L 1069 2368 
z
" transform="scale(0.015625)"/>
      <path id="CMSS17-43" d="M 3501 714 
C 3072 427 2874 344 2355 344 
C 1459 344 934 1303 934 2179 
C 934 3112 1472 4032 2381 4032 
C 2790 4032 3059 3918 3386 3715 
L 3475 4217 
C 3168 4370 2778 4440 2387 4440 
C 1158 4440 397 3316 397 2179 
C 397 927 1299 -64 2323 -64 
C 2874 -64 3066 -19 3539 280 
L 3501 714 
z
" transform="scale(0.015625)"/>
      <path id="CMSS17-61" d="M 2406 1791 
C 2406 2392 1978 2808 1402 2808 
C 1120 2808 813 2757 461 2553 
L 499 2135 
C 659 2248 934 2432 1395 2432 
C 1722 2432 1920 2180 1920 1782 
L 1920 1536 
C 896 1536 256 1238 256 726 
C 256 461 416 -64 947 -64 
C 1043 -64 1562 -64 1933 217 
L 1933 -19 
L 2406 -19 
L 2406 1791 
z
M 1920 816 
C 1920 701 1920 548 1728 434 
C 1562 325 1350 325 1261 325 
C 941 325 723 511 723 744 
C 723 1211 1722 1211 1920 1211 
L 1920 816 
z
" transform="scale(0.015625)"/>
      <path id="CMSS17-28" d="M 1613 4768 
C 1267 4417 474 3601 474 1588 
C 474 -433 1267 -1243 1613 -1600 
L 2003 -1600 
C 1216 -784 960 357 960 1581 
C 960 2798 1203 3946 2003 4768 
L 1613 4768 
z
" transform="scale(0.015625)"/>
      <path id="CMSS17-55" d="M 3552 4384 
L 3066 4384 
L 3066 1449 
C 3066 604 2547 229 2074 229 
C 1587 229 1101 623 1101 1443 
L 1101 4384 
L 563 4384 
L 563 1454 
C 563 539 1274 -128 2067 -128 
C 2861 -128 3552 539 3552 1454 
L 3552 4384 
z
" transform="scale(0.015625)"/>
      <path id="CMSS17-6e" d="M 2618 1877 
C 2618 2283 2522 2816 1798 2816 
C 1389 2816 1120 2606 941 2389 
L 941 2758 
L 474 2758 
L 474 0 
L 960 0 
L 960 1559 
C 960 1964 1114 2428 1549 2428 
C 2112 2428 2131 2048 2131 1829 
L 2131 0 
L 2618 0 
L 2618 1877 
z
" transform="scale(0.015625)"/>
      <path id="CMSS17-79" d="M 2675 2752 
L 2176 2752 
C 1632 1294 1446 702 1434 383 
L 1427 383 
C 1408 696 1126 1460 902 2007 
L 602 2752 
L 83 2752 
L 1216 13 
C 1146 -178 1043 -465 1011 -529 
C 870 -885 774 -885 672 -885 
C 646 -885 442 -885 211 -809 
L 250 -1229 
C 410 -1261 570 -1280 685 -1280 
C 845 -1280 1165 -1280 1459 -497 
L 2675 2752 
z
" transform="scale(0.015625)"/>
      <path id="CMSS17-63" d="M 2464 2541 
C 2464 2585 2170 2714 2093 2739 
C 1882 2816 1613 2816 1542 2816 
C 710 2816 211 2093 211 1363 
C 211 595 768 -64 1517 -64 
C 1946 -64 2253 76 2502 242 
L 2464 664 
C 2189 453 1869 337 1523 337 
C 1024 337 698 774 698 1369 
C 698 1831 909 2414 1549 2414 
C 1901 2414 2099 2343 2394 2145 
L 2464 2541 
z
" transform="scale(0.015625)"/>
      <path id="CMSS17-2e" d="M 1088 510 
L 576 510 
L 576 0 
L 1088 0 
L 1088 510 
z
" transform="scale(0.015625)"/>
      <path id="CMSS17-29" d="M 723 -1600 
C 1069 -1249 1862 -433 1862 1581 
C 1862 3601 1069 4411 723 4768 
L 333 4768 
C 1120 3952 1376 2811 1376 1588 
C 1376 370 1133 -778 333 -1600 
L 723 -1600 
z
" transform="scale(0.015625)"/>
     </defs>
     <use xlink:href="#CMSS17-42" transform="scale(0.996264)"/>
     <use xlink:href="#CMSS17-65" transform="translate(62.33804 0) scale(0.996264)"/>
     <use xlink:href="#CMSS17-73" transform="translate(103.976862 0) scale(0.996264)"/>
     <use xlink:href="#CMSS17-74" transform="translate(139.890404 0) scale(0.996264)"/>
     <use xlink:href="#CMSS17-43" transform="translate(204.951084 0) scale(0.996264)"/>
     <use xlink:href="#CMSS17-61" transform="translate(264.806855 0) scale(0.996264)"/>
     <use xlink:href="#CMSS17-73" transform="translate(309.728776 0) scale(0.996264)"/>
     <use xlink:href="#CMSS17-65" transform="translate(345.642318 0) scale(0.996264)"/>
     <use xlink:href="#CMSS17-28" transform="translate(418.510253 0) scale(0.996264)"/>
     <use xlink:href="#CMSS17-55" transform="translate(454.944167 0) scale(0.996264)"/>
     <use xlink:href="#CMSS17-6e" transform="translate(519.083907 0) scale(0.996264)"/>
     <use xlink:href="#CMSS17-73" transform="translate(567.28885 0) scale(0.996264)"/>
     <use xlink:href="#CMSS17-79" transform="translate(603.202392 0) scale(0.996264)"/>
     <use xlink:href="#CMSS17-6e" transform="translate(646.202534 0) scale(0.996264)"/>
     <use xlink:href="#CMSS17-63" transform="translate(694.407477 0) scale(0.996264)"/>
     <use xlink:href="#CMSS17-2e" transform="translate(736.046299 0) scale(0.996264)"/>
     <use xlink:href="#CMSS17-29" transform="translate(762.070504 0) scale(0.996264)"/>
    </g>
   </g>
   <g id="line2d_2">
    <path d="M 5.6 32.108468 
L 19.6 32.108468 
L 33.6 32.108468 
" style="fill: none; stroke-dasharray: 5.55,2.4; stroke-dashoffset: 0; stroke: #000000; stroke-width: 1.5"/>
    <defs>
     <path id="me24ffbeb8c" d="M -3 3 
L 3 3 
L 3 -3 
L -3 -3 
z
" style="stroke: #000000; stroke-linejoin: miter"/>
    </defs>
    <g>
     <use xlink:href="#me24ffbeb8c" x="19.6" y="32.108468" style="stroke: #000000; stroke-linejoin: miter"/>
    </g>
   </g>
   <g id="text_2">
    <!-- Best Case (Sync.) -->
    <g transform="translate(44.8 37.008468) scale(0.14 -0.14)">
     <defs>
      <path id="CMSS17-53" d="M 2797 4169 
C 2515 4334 2208 4480 1690 4480 
C 864 4480 333 3879 333 3266 
C 333 3025 403 2753 653 2475 
C 902 2196 1184 2121 1542 2033 
C 1690 1994 1939 1924 1984 1906 
C 2342 1767 2515 1444 2515 1140 
C 2515 742 2202 318 1645 318 
C 1453 318 890 318 358 819 
L 269 318 
C 794 -64 1363 -128 1651 -128 
C 2438 -128 3002 488 3002 1186 
C 3002 1440 2925 1763 2656 2061 
C 2394 2347 2163 2410 1638 2549 
C 1338 2626 1146 2677 986 2873 
C 877 3013 819 3146 819 3317 
C 819 3673 1126 4060 1690 4060 
C 1971 4060 2336 4002 2707 3660 
L 2797 4169 
z
" transform="scale(0.015625)"/>
     </defs>
     <use xlink:href="#CMSS17-42" transform="scale(0.996264)"/>
     <use xlink:href="#CMSS17-65" transform="translate(62.33804 0) scale(0.996264)"/>
     <use xlink:href="#CMSS17-73" transform="translate(103.976862 0) scale(0.996264)"/>
     <use xlink:href="#CMSS17-74" transform="translate(139.890404 0) scale(0.996264)"/>
     <use xlink:href="#CMSS17-43" transform="translate(204.951084 0) scale(0.996264)"/>
     <use xlink:href="#CMSS17-61" transform="translate(264.806855 0) scale(0.996264)"/>
     <use xlink:href="#CMSS17-73" transform="translate(309.728776 0) scale(0.996264)"/>
     <use xlink:href="#CMSS17-65" transform="translate(345.642318 0) scale(0.996264)"/>
     <use xlink:href="#CMSS17-28" transform="translate(418.510253 0) scale(0.996264)"/>
     <use xlink:href="#CMSS17-53" transform="translate(454.944167 0) scale(0.996264)"/>
     <use xlink:href="#CMSS17-79" transform="translate(506.992683 0) scale(0.996264)"/>
     <use xlink:href="#CMSS17-6e" transform="translate(549.992825 0) scale(0.996264)"/>
     <use xlink:href="#CMSS17-63" transform="translate(598.197768 0) scale(0.996264)"/>
     <use xlink:href="#CMSS17-2e" transform="translate(639.83659 0) scale(0.996264)"/>
     <use xlink:href="#CMSS17-29" transform="translate(665.860795 0) scale(0.996264)"/>
    </g>
   </g>
   <g id="line2d_3">
    <path d="M 5.6 52.395392 
L 19.6 52.395392 
L 33.6 52.395392 
" style="fill: none; stroke: #1b4f27; stroke-width: 1.5; stroke-linecap: square"/>
    <defs>
     <path id="m6ba191dd77" d="M -0 4.242641 
L 4.242641 0 
L 0 -4.242641 
L -4.242641 -0 
z
" style="stroke: #1b4f27; stroke-linejoin: miter"/>
    </defs>
    <g>
     <use xlink:href="#m6ba191dd77" x="19.6" y="52.395392" style="fill: #1b4f27; stroke: #1b4f27; stroke-linejoin: miter"/>
    </g>
   </g>
   <g id="text_3">
    <!-- CmpExclPartitionRanges  -->
    <g transform="translate(44.8 57.295392) scale(0.14 -0.14)">
     <defs>
      <path id="CMSS17-6d" d="M 4288 1877 
C 4288 2308 4179 2816 3462 2816 
C 2982 2816 2694 2516 2566 2331 
C 2451 2670 2182 2816 1798 2816 
C 1363 2816 1088 2568 941 2389 
L 941 2758 
L 474 2758 
L 474 0 
L 960 0 
L 960 1559 
C 960 1939 1101 2428 1555 2428 
C 2138 2428 2138 2016 2138 1829 
L 2138 0 
L 2624 0 
L 2624 1559 
C 2624 1939 2765 2428 3219 2428 
C 3802 2428 3802 2016 3802 1829 
L 3802 0 
L 4288 0 
L 4288 1877 
z
" transform="scale(0.015625)"/>
      <path id="CMSS17-70" d="M 966 333 
C 1178 129 1466 -5 1773 -5 
C 2368 -5 2880 603 2880 1412 
C 2880 2159 2496 2816 1946 2816 
C 1626 2816 1242 2702 954 2472 
L 954 2765 
L 480 2765 
L 480 -1216 
L 966 -1216 
L 966 333 
z
M 966 2100 
C 1018 2176 1235 2415 1587 2415 
C 2035 2415 2394 1960 2394 1412 
C 2394 787 1958 384 1530 384 
C 1402 384 1267 415 1139 523 
C 966 674 966 768 966 857 
L 966 2100 
z
" transform="scale(0.015625)"/>
      <path id="CMSS17-45" d="M 1958 433 
C 1446 433 1216 433 1101 433 
L 1101 2107 
L 3085 2107 
L 3085 2496 
L 1101 2496 
L 1101 4009 
L 1926 4009 
C 2003 4009 2080 4009 2157 4009 
L 3251 4009 
L 3251 4416 
L 563 4416 
L 563 0 
L 3334 0 
L 3334 433 
L 1958 433 
z
" transform="scale(0.015625)"/>
      <path id="CMSS17-78" d="M 1587 1414 
L 2656 2739 
L 2099 2739 
L 1363 1777 
L 602 2739 
L 32 2739 
L 1139 1414 
L 0 0 
L 563 0 
L 1363 1121 
L 2195 0 
L 2758 0 
L 1587 1414 
z
" transform="scale(0.015625)"/>
      <path id="CMSS17-6c" d="M 947 4416 
L 474 4416 
L 474 0 
L 947 0 
L 947 4416 
z
" transform="scale(0.015625)"/>
      <path id="CMSS17-50" d="M 2106 1856 
C 2874 1856 3501 2453 3501 3158 
C 3501 3850 2899 4453 2067 4453 
L 570 4453 
L 570 0 
L 1107 0 
L 1107 1856 
L 2106 1856 
z
M 1926 4096 
C 2669 4096 2995 3627 2995 3157 
C 2995 2720 2694 2226 1926 2226 
L 1094 2226 
L 1094 4096 
L 1926 4096 
z
" transform="scale(0.015625)"/>
      <path id="CMSS17-72" d="M 954 1363 
C 954 1965 1395 2368 1958 2368 
L 1958 2789 
C 1549 2789 1165 2585 934 2253 
L 934 2758 
L 480 2758 
L 480 0 
L 954 0 
L 954 1363 
z
" transform="scale(0.015625)"/>
      <path id="CMSS17-69" d="M 979 4183 
L 442 4183 
L 442 3648 
L 979 3648 
L 979 4183 
z
M 947 2739 
L 474 2739 
L 474 0 
L 947 0 
L 947 2739 
z
" transform="scale(0.015625)"/>
      <path id="CMSS17-6f" d="M 2829 1356 
C 2829 2176 2221 2816 1504 2816 
C 768 2816 173 2157 173 1356 
C 173 544 787 -64 1498 -64 
C 2227 -64 2829 563 2829 1356 
z
M 1504 337 
C 1050 337 659 709 659 1408 
C 659 2151 1114 2427 1498 2427 
C 1914 2427 2342 2126 2342 1408 
C 2342 683 1926 337 1504 337 
z
" transform="scale(0.015625)"/>
      <path id="CMSS17-52" d="M 2522 2109 
L 2534 2115 
C 3533 2459 3539 3147 3539 3268 
C 3539 3873 2925 4453 2003 4453 
L 570 4453 
L 570 32 
L 1094 32 
L 1094 2048 
L 2035 2048 
L 3168 32 
L 3706 32 
L 2522 2109 
z
M 1094 2437 
L 1094 4096 
L 1933 4096 
C 2746 4096 3034 3637 3034 3267 
C 3034 2922 2778 2437 1933 2437 
L 1094 2437 
z
" transform="scale(0.015625)"/>
      <path id="CMSS17-67" d="M 2848 2808 
C 2483 2808 2170 2738 1914 2617 
C 1702 2777 1485 2808 1338 2808 
C 781 2808 358 2349 358 1814 
C 358 1468 550 1207 563 1195 
C 448 1035 384 863 384 672 
C 384 448 474 289 544 200 
C 211 -3 166 -314 166 -435 
C 166 -898 749 -1280 1498 -1280 
C 2253 -1280 2835 -898 2835 -428 
C 2835 448 1856 448 1587 448 
L 1069 448 
C 973 448 717 448 717 791 
C 717 921 774 1004 781 1010 
C 877 940 1075 832 1338 832 
C 1869 832 2310 1278 2310 1827 
C 2310 2132 2170 2355 2112 2432 
L 2131 2432 
C 2150 2432 2419 2432 2515 2432 
C 2720 2432 2739 2429 2918 2419 
L 2848 2808 
z
M 1338 1182 
C 1120 1182 813 1315 813 1823 
C 813 2375 1165 2464 1331 2464 
C 1549 2464 1856 2331 1856 1823 
C 1856 1271 1504 1182 1338 1182 
z
M 1581 -10 
C 1734 -10 2381 -10 2381 -442 
C 2381 -714 1984 -929 1504 -929 
C 1018 -929 621 -720 621 -435 
C 621 -403 621 -10 1062 -10 
L 1581 -10 
z
" transform="scale(0.015625)"/>
     </defs>
     <use xlink:href="#CMSS17-43" transform="scale(0.996264)"/>
     <use xlink:href="#CMSS17-6d" transform="translate(59.855772 0) scale(0.996264)"/>
     <use xlink:href="#CMSS17-70" transform="translate(134.085026 0) scale(0.996264)"/>
     <use xlink:href="#CMSS17-45" transform="translate(182.289969 0) scale(0.996264)"/>
     <use xlink:href="#CMSS17-78" transform="translate(238.181982 0) scale(0.996264)"/>
     <use xlink:href="#CMSS17-63" transform="translate(281.182124 0) scale(0.996264)"/>
     <use xlink:href="#CMSS17-6c" transform="translate(322.820946 0) scale(0.996264)"/>
     <use xlink:href="#CMSS17-50" transform="translate(345.001669 0) scale(0.996264)"/>
     <use xlink:href="#CMSS17-61" transform="translate(402.134802 0) scale(0.996264)"/>
     <use xlink:href="#CMSS17-72" transform="translate(444.454268 0) scale(0.996264)"/>
     <use xlink:href="#CMSS17-74" transform="translate(476.364041 0) scale(0.996264)"/>
     <use xlink:href="#CMSS17-69" transform="translate(510.195607 0) scale(0.996264)"/>
     <use xlink:href="#CMSS17-74" transform="translate(532.37633 0) scale(0.996264)"/>
     <use xlink:href="#CMSS17-69" transform="translate(566.207897 0) scale(0.996264)"/>
     <use xlink:href="#CMSS17-6f" transform="translate(588.38862 0) scale(0.996264)"/>
     <use xlink:href="#CMSS17-6e" transform="translate(635.232244 0) scale(0.996264)"/>
     <use xlink:href="#CMSS17-52" transform="translate(683.437187 0) scale(0.996264)"/>
     <use xlink:href="#CMSS17-61" transform="translate(743.853342 0) scale(0.996264)"/>
     <use xlink:href="#CMSS17-6e" transform="translate(788.775262 0) scale(0.996264)"/>
     <use xlink:href="#CMSS17-67" transform="translate(836.980205 0) scale(0.996264)"/>
     <use xlink:href="#CMSS17-65" transform="translate(883.823829 0) scale(0.996264)"/>
     <use xlink:href="#CMSS17-73" transform="translate(925.462651 0) scale(0.996264)"/>
    </g>
   </g>
   <g id="line2d_4">
    <path d="M 212.691772 11.160772 
L 226.691772 11.160772 
L 240.691772 11.160772 
" style="fill: none; stroke: #f7c530; stroke-width: 1.5; stroke-linecap: square"/>
    <defs>
     <path id="m3feaf47669" d="M 0 -3 
L -3 3 
L 3 3 
z
" style="stroke: #f7c530; stroke-linejoin: miter"/>
    </defs>
    <g>
     <use xlink:href="#m3feaf47669" x="226.691772" y="11.160772" style="fill: #f7c530; stroke: #f7c530; stroke-linejoin: miter"/>
    </g>
   </g>
   <g id="text_4">
    <!-- CmpProcessingUnits  -->
    <g transform="translate(251.891772 16.060772) scale(0.14 -0.14)">
     <use xlink:href="#CMSS17-43" transform="scale(0.996264)"/>
     <use xlink:href="#CMSS17-6d" transform="translate(59.855772 0) scale(0.996264)"/>
     <use xlink:href="#CMSS17-70" transform="translate(134.085026 0) scale(0.996264)"/>
     <use xlink:href="#CMSS17-50" transform="translate(182.289969 0) scale(0.996264)"/>
     <use xlink:href="#CMSS17-72" transform="translate(242.025555 0) scale(0.996264)"/>
     <use xlink:href="#CMSS17-6f" transform="translate(273.935328 0) scale(0.996264)"/>
     <use xlink:href="#CMSS17-63" transform="translate(323.38139 0) scale(0.996264)"/>
     <use xlink:href="#CMSS17-65" transform="translate(365.020212 0) scale(0.996264)"/>
     <use xlink:href="#CMSS17-73" transform="translate(406.659034 0) scale(0.996264)"/>
     <use xlink:href="#CMSS17-73" transform="translate(442.572576 0) scale(0.996264)"/>
     <use xlink:href="#CMSS17-69" transform="translate(478.486118 0) scale(0.996264)"/>
     <use xlink:href="#CMSS17-6e" transform="translate(500.666841 0) scale(0.996264)"/>
     <use xlink:href="#CMSS17-67" transform="translate(548.871785 0) scale(0.996264)"/>
     <use xlink:href="#CMSS17-55" transform="translate(595.715408 0) scale(0.996264)"/>
     <use xlink:href="#CMSS17-6e" transform="translate(659.855148 0) scale(0.996264)"/>
     <use xlink:href="#CMSS17-69" transform="translate(708.060091 0) scale(0.996264)"/>
     <use xlink:href="#CMSS17-74" transform="translate(730.240814 0) scale(0.996264)"/>
     <use xlink:href="#CMSS17-73" transform="translate(764.072381 0) scale(0.996264)"/>
    </g>
   </g>
   <g id="line2d_5">
    <path d="M 212.691772 30.6728 
L 226.691772 30.6728 
L 240.691772 30.6728 
" style="fill: none; stroke: #3c5488; stroke-width: 1.5; stroke-linecap: square"/>
    <defs>
     <path id="mbb14b45842" d="M -0 3 
L 3 -3 
L -3 -3 
z
" style="stroke: #3c5488; stroke-linejoin: miter"/>
    </defs>
    <g>
     <use xlink:href="#mbb14b45842" x="226.691772" y="30.6728" style="fill: #3c5488; stroke: #3c5488; stroke-linejoin: miter"/>
    </g>
   </g>
   <g id="text_5">
    <!-- Hybrid  -->
    <g transform="translate(251.891772 35.5728) scale(0.14 -0.14)">
     <defs>
      <path id="CMSS17-48" d="M 3674 4416 
L 3136 4416 
L 3136 2501 
L 1101 2501 
L 1101 4416 
L 563 4416 
L 563 0 
L 1101 0 
L 1101 2112 
L 3136 2112 
L 3136 0 
L 3674 0 
L 3674 4416 
z
" transform="scale(0.015625)"/>
      <path id="CMSS17-62" d="M 954 4416 
L 480 4416 
L 480 -13 
L 966 -13 
L 966 274 
C 1210 38 1504 -64 1766 -64 
C 2381 -64 2880 549 2880 1352 
C 2880 2086 2496 2756 1926 2756 
C 1523 2756 1165 2591 954 2419 
L 954 4416 
z
M 966 2046 
C 1107 2222 1306 2368 1587 2368 
C 1965 2368 2394 2097 2394 1352 
C 2394 558 1882 325 1530 325 
C 1402 325 1267 356 1139 464 
C 966 615 966 709 966 797 
L 966 2046 
z
" transform="scale(0.015625)"/>
      <path id="CMSS17-64" d="M 2611 4416 
L 2138 4416 
L 2138 2438 
C 1939 2603 1613 2756 1254 2756 
C 672 2756 211 2131 211 1347 
C 211 562 666 -64 1235 -64 
C 1677 -64 1971 172 2125 306 
L 2125 -13 
L 2611 -13 
L 2611 4416 
z
M 2125 836 
C 2125 747 2125 653 1926 482 
C 1798 375 1645 325 1498 325 
C 1152 325 698 576 698 1340 
C 698 2134 1210 2368 1562 2368 
C 1798 2368 1990 2254 2125 2065 
L 2125 836 
z
" transform="scale(0.015625)"/>
     </defs>
     <use xlink:href="#CMSS17-48" transform="scale(0.996264)"/>
     <use xlink:href="#CMSS17-79" transform="translate(66.061519 0) scale(0.996264)"/>
     <use xlink:href="#CMSS17-62" transform="translate(109.061661 0) scale(0.996264)"/>
     <use xlink:href="#CMSS17-72" transform="translate(154.66415 0) scale(0.996264)"/>
     <use xlink:href="#CMSS17-69" transform="translate(186.573923 0) scale(0.996264)"/>
     <use xlink:href="#CMSS17-64" transform="translate(208.754646 0) scale(0.996264)"/>
    </g>
   </g>
   <g id="line2d_6">
    <path d="M 212.691772 50.184829 
L 226.691772 50.184829 
L 240.691772 50.184829 
" style="fill: none; stroke: #d32f2f; stroke-width: 1.5; stroke-linecap: square"/>
    <defs>
     <path id="m88fe7bb459" d="M 0 -3 
L -2.85317 -0.927051 
L -1.763356 2.427051 
L 1.763356 2.427051 
L 2.85317 -0.927051 
z
" style="stroke: #d32f2f; stroke-linejoin: miter"/>
    </defs>
    <g>
     <use xlink:href="#m88fe7bb459" x="226.691772" y="50.184829" style="fill: #d32f2f; stroke: #d32f2f; stroke-linejoin: miter"/>
    </g>
   </g>
   <g id="text_6">
    <!-- LocalPagesAndMerge  -->
    <g transform="translate(251.891772 55.084829) scale(0.14 -0.14)">
     <defs>
      <path id="CMSS17-4c" d="M 1670 414 
C 1594 414 1517 414 1440 414 
L 1101 414 
L 1101 4416 
L 563 4416 
L 563 0 
L 3002 0 
L 3002 414 
L 1670 414 
z
" transform="scale(0.015625)"/>
      <path id="CMSS17-41" d="M 2272 4416 
L 1722 4416 
L 166 0 
L 653 0 
L 1101 1280 
L 2816 1280 
L 3270 0 
L 3827 0 
L 2272 4416 
z
M 2694 1637 
L 1222 1637 
C 1530 2528 1914 3638 1958 3925 
L 1965 3925 
C 2010 3663 2138 3281 2246 2956 
L 2694 1637 
z
" transform="scale(0.015625)"/>
      <path id="CMSS17-4d" d="M 3194 2371 
L 2886 1473 
C 2835 1307 2662 791 2624 587 
L 2618 587 
C 2598 715 2560 849 2458 1174 
C 2400 1365 2336 1562 2272 1741 
L 1325 4416 
L 576 4416 
L 576 0 
L 1075 0 
L 1075 3900 
L 1082 3900 
C 1082 3894 1139 3613 1530 2499 
L 2374 96 
L 2848 96 
L 3610 2231 
C 3661 2378 3821 2843 3891 3066 
C 3955 3257 4115 3728 4154 3913 
L 4160 3913 
L 4160 0 
L 4666 0 
L 4666 4416 
L 3923 4416 
L 3194 2371 
z
" transform="scale(0.015625)"/>
     </defs>
     <use xlink:href="#CMSS17-4c" transform="scale(0.996264)"/>
     <use xlink:href="#CMSS17-6f" transform="translate(50.687105 0) scale(0.996264)"/>
     <use xlink:href="#CMSS17-63" transform="translate(100.133168 0) scale(0.996264)"/>
     <use xlink:href="#CMSS17-61" transform="translate(141.77199 0) scale(0.996264)"/>
     <use xlink:href="#CMSS17-6c" transform="translate(186.69391 0) scale(0.996264)"/>
     <use xlink:href="#CMSS17-50" transform="translate(208.874633 0) scale(0.996264)"/>
     <use xlink:href="#CMSS17-61" transform="translate(266.007766 0) scale(0.996264)"/>
     <use xlink:href="#CMSS17-67" transform="translate(310.929686 0) scale(0.996264)"/>
     <use xlink:href="#CMSS17-65" transform="translate(357.77331 0) scale(0.996264)"/>
     <use xlink:href="#CMSS17-73" transform="translate(399.412132 0) scale(0.996264)"/>
     <use xlink:href="#CMSS17-41" transform="translate(435.325674 0) scale(0.996264)"/>
     <use xlink:href="#CMSS17-6e" transform="translate(497.543529 0) scale(0.996264)"/>
     <use xlink:href="#CMSS17-64" transform="translate(545.748472 0) scale(0.996264)"/>
     <use xlink:href="#CMSS17-4d" transform="translate(593.953415 0) scale(0.996264)"/>
     <use xlink:href="#CMSS17-65" transform="translate(675.629445 0) scale(0.996264)"/>
     <use xlink:href="#CMSS17-72" transform="translate(717.268267 0) scale(0.996264)"/>
     <use xlink:href="#CMSS17-67" transform="translate(749.17804 0) scale(0.996264)"/>
     <use xlink:href="#CMSS17-65" transform="translate(796.021663 0) scale(0.996264)"/>
    </g>
   </g>
   <g id="line2d_7">
    <path d="M 401.768034 11.160772 
L 415.768034 11.160772 
L 429.768034 11.160772 
" style="fill: none; stroke: #cc79a7; stroke-width: 1.5; stroke-linecap: square"/>
    <defs>
     <path id="me3d86edf86" d="M 0 -3 
L -0.673542 -0.927051 
L -2.85317 -0.927051 
L -1.089814 0.354102 
L -1.763356 2.427051 
L -0 1.145898 
L 1.763356 2.427051 
L 1.089814 0.354102 
L 2.85317 -0.927051 
L 0.673542 -0.927051 
z
" style="stroke: #cc79a7; stroke-linejoin: bevel"/>
    </defs>
    <g>
     <use xlink:href="#me3d86edf86" x="415.768034" y="11.160772" style="fill: #cc79a7; stroke: #cc79a7; stroke-linejoin: bevel"/>
    </g>
   </g>
   <g id="text_7">
    <!-- OnDemand  -->
    <g transform="translate(440.968034 16.060772) scale(0.14 -0.14)">
     <defs>
      <path id="CMSS17-4f" d="M 4096 2178 
C 4096 3503 3219 4497 2214 4497 
C 1210 4497 333 3497 333 2178 
C 333 847 1222 -128 2214 -128 
C 3206 -128 4096 847 4096 2178 
z
M 2214 273 
C 1510 273 870 1057 870 2261 
C 870 3433 1549 4096 2214 4096 
C 2880 4096 3558 3433 3558 2261 
C 3558 1051 2912 273 2214 273 
z
" transform="scale(0.015625)"/>
      <path id="CMSS17-44" d="M 570 4416 
L 570 0 
L 2144 0 
C 3194 0 4000 980 4000 2170 
C 4000 3398 3194 4416 2144 4416 
L 570 4416 
z
M 1094 357 
L 1094 4059 
L 2003 4059 
C 2861 4059 3475 3277 3475 2170 
C 3475 1107 2867 357 2003 357 
L 1094 357 
z
" transform="scale(0.015625)"/>
     </defs>
     <use xlink:href="#CMSS17-4f" transform="scale(0.996264)"/>
     <use xlink:href="#CMSS17-6e" transform="translate(69.024255 0) scale(0.996264)"/>
     <use xlink:href="#CMSS17-44" transform="translate(117.229198 0) scale(0.996264)"/>
     <use xlink:href="#CMSS17-65" transform="translate(184.77204 0) scale(0.996264)"/>
     <use xlink:href="#CMSS17-6d" transform="translate(226.410862 0) scale(0.996264)"/>
     <use xlink:href="#CMSS17-61" transform="translate(300.640117 0) scale(0.996264)"/>
     <use xlink:href="#CMSS17-6e" transform="translate(345.562037 0) scale(0.996264)"/>
     <use xlink:href="#CMSS17-64" transform="translate(393.76698 0) scale(0.996264)"/>
    </g>
   </g>
   <g id="line2d_8">
    <path d="M 401.768034 30.6728 
L 415.768034 30.6728 
L 429.768034 30.6728 
" style="fill: none; stroke: #a65628; stroke-width: 1.5; stroke-linecap: square"/>
    <defs>
     <path id="mf896c07806" d="M 0 -3 
L -2.598076 -1.5 
L -2.598076 1.5 
L -0 3 
L 2.598076 1.5 
L 2.598076 -1.5 
z
" style="stroke: #a65628; stroke-linejoin: miter"/>
    </defs>
    <g>
     <use xlink:href="#mf896c07806" x="415.768034" y="30.6728" style="fill: #a65628; stroke: #a65628; stroke-linejoin: miter"/>
    </g>
   </g>
   <g id="text_8">
    <!-- Radix  -->
    <g transform="translate(440.968034 35.5728) scale(0.14 -0.14)">
     <use xlink:href="#CMSS17-52" transform="scale(0.996264)"/>
     <use xlink:href="#CMSS17-61" transform="translate(60.416155 0) scale(0.996264)"/>
     <use xlink:href="#CMSS17-64" transform="translate(105.338075 0) scale(0.996264)"/>
     <use xlink:href="#CMSS17-69" transform="translate(153.543019 0) scale(0.996264)"/>
     <use xlink:href="#CMSS17-78" transform="translate(175.723742 0) scale(0.996264)"/>
    </g>
   </g>
   <g id="line2d_9">
    <path d="M 401.768034 50.184829 
L 415.768034 50.184829 
L 429.768034 50.184829 
" style="fill: none; stroke: #984ea3; stroke-width: 1.5; stroke-linecap: square"/>
    <defs>
     <path id="mcabed04b7f" d="M -3 3 
L 3 -3 
M -3 -3 
L 3 3 
" style="stroke: #984ea3"/>
    </defs>
    <g>
     <use xlink:href="#mcabed04b7f" x="415.768034" y="50.184829" style="fill: #984ea3; stroke: #984ea3"/>
    </g>
   </g>
   <g id="text_9">
    <!-- Smb  -->
    <g transform="translate(440.968034 55.084829) scale(0.14 -0.14)">
     <use xlink:href="#CMSS17-53" transform="scale(0.996264)"/>
     <use xlink:href="#CMSS17-6d" transform="translate(52.048516 0) scale(0.996264)"/>
     <use xlink:href="#CMSS17-62" transform="translate(126.277771 0) scale(0.996264)"/>
    </g>
   </g>
   <g id="line2d_10">
    <path d="M 533.289709 11.160772 
L 547.289709 11.160772 
L 561.289709 11.160772 
" style="fill: none; stroke: #4daf4a; stroke-width: 1.5; stroke-linecap: square"/>
    <defs>
     <path id="m235f0075a7" d="M -3 0 
L 3 0 
M 0 3 
L 0 -3 
" style="stroke: #4daf4a"/>
    </defs>
    <g>
     <use xlink:href="#m235f0075a7" x="547.289709" y="11.160772" style="fill: #4daf4a; stroke: #4daf4a"/>
    </g>
   </g>
   <g id="text_10">
    <!-- SmbBatched  -->
    <g transform="translate(572.489709 16.060772) scale(0.14 -0.14)">
     <defs>
      <path id="CMSS17-68" d="M 2618 1891 
C 2618 2292 2522 2820 1798 2820 
C 1395 2820 1133 2623 947 2407 
L 947 4448 
L 474 4448 
L 474 32 
L 960 32 
L 960 1573 
C 960 1973 1114 2432 1549 2432 
C 2112 2432 2131 2056 2131 1839 
L 2131 32 
L 2618 32 
L 2618 1891 
z
" transform="scale(0.015625)"/>
     </defs>
     <use xlink:href="#CMSS17-53" transform="scale(0.996264)"/>
     <use xlink:href="#CMSS17-6d" transform="translate(52.048516 0) scale(0.996264)"/>
     <use xlink:href="#CMSS17-62" transform="translate(126.277771 0) scale(0.996264)"/>
     <use xlink:href="#CMSS17-42" transform="translate(174.482714 0) scale(0.996264)"/>
     <use xlink:href="#CMSS17-61" transform="translate(236.820754 0) scale(0.996264)"/>
     <use xlink:href="#CMSS17-74" transform="translate(281.742675 0) scale(0.996264)"/>
     <use xlink:href="#CMSS17-63" transform="translate(315.574241 0) scale(0.996264)"/>
     <use xlink:href="#CMSS17-68" transform="translate(357.213063 0) scale(0.996264)"/>
     <use xlink:href="#CMSS17-65" transform="translate(405.418006 0) scale(0.996264)"/>
     <use xlink:href="#CMSS17-64" transform="translate(447.056829 0) scale(0.996264)"/>
    </g>
   </g>
   <g id="line2d_11">
    <path d="M 533.289709 30.6728 
L 547.289709 30.6728 
L 561.289709 30.6728 
" style="fill: none; stroke: #ff6f00; stroke-width: 1.5; stroke-linecap: square"/>
    <defs>
     <path id="m7f534b6689" d="M -3 -0 
L 3 3 
L 3 -3 
z
" style="stroke: #ff6f00; stroke-linejoin: miter"/>
    </defs>
    <g>
     <use xlink:href="#m7f534b6689" x="547.289709" y="30.6728" style="fill: #ff6f00; stroke: #ff6f00; stroke-linejoin: miter"/>
    </g>
   </g>
   <g id="text_11">
    <!-- SmbLockFree  -->
    <g transform="translate(572.489709 35.5728) scale(0.14 -0.14)">
     <defs>
      <path id="CMSS17-6b" d="M 1696 1688 
L 2688 2739 
L 2074 2739 
L 954 1554 
L 954 4416 
L 480 4416 
L 480 0 
L 947 0 
L 947 892 
L 1376 1344 
L 2278 0 
L 2822 0 
L 1696 1688 
z
" transform="scale(0.015625)"/>
      <path id="CMSS17-46" d="M 2918 1984 
L 2918 2373 
L 1101 2373 
L 1101 3968 
L 1882 3968 
C 1958 3968 2035 3968 2112 3968 
L 3168 3968 
L 3168 4375 
L 563 4375 
L 563 -32 
L 1101 -32 
L 1101 1984 
L 2918 1984 
z
" transform="scale(0.015625)"/>
     </defs>
     <use xlink:href="#CMSS17-53" transform="scale(0.996264)"/>
     <use xlink:href="#CMSS17-6d" transform="translate(52.048516 0) scale(0.996264)"/>
     <use xlink:href="#CMSS17-62" transform="translate(126.277771 0) scale(0.996264)"/>
     <use xlink:href="#CMSS17-4c" transform="translate(174.482714 0) scale(0.996264)"/>
     <use xlink:href="#CMSS17-6f" transform="translate(225.169819 0) scale(0.996264)"/>
     <use xlink:href="#CMSS17-63" transform="translate(274.615881 0) scale(0.996264)"/>
     <use xlink:href="#CMSS17-6b" transform="translate(316.254703 0) scale(0.996264)"/>
     <use xlink:href="#CMSS17-46" transform="translate(361.857193 0) scale(0.996264)"/>
     <use xlink:href="#CMSS17-72" transform="translate(412.544298 0) scale(0.996264)"/>
     <use xlink:href="#CMSS17-65" transform="translate(444.454071 0) scale(0.996264)"/>
     <use xlink:href="#CMSS17-65" transform="translate(486.092893 0) scale(0.996264)"/>
    </g>
   </g>
   <g id="line2d_12">
    <path d="M 533.289709 50.184829 
L 547.289709 50.184829 
L 561.289709 50.184829 
" style="fill: none; stroke: #56b4e9; stroke-width: 1.5; stroke-linecap: square"/>
    <defs>
     <path id="mf3d5da5817" d="M 3 0 
L -3 -3 
L -3 3 
z
" style="stroke: #56b4e9; stroke-linejoin: miter"/>
    </defs>
    <g>
     <use xlink:href="#mf3d5da5817" x="547.289709" y="50.184829" style="fill: #56b4e9; stroke: #56b4e9; stroke-linejoin: miter"/>
    </g>
   </g>
   <g id="text_12">
    <!-- SmbLockFreeBatched  -->
    <g transform="translate(572.489709 55.084829) scale(0.14 -0.14)">
     <use xlink:href="#CMSS17-53" transform="scale(0.996264)"/>
     <use xlink:href="#CMSS17-6d" transform="translate(52.048516 0) scale(0.996264)"/>
     <use xlink:href="#CMSS17-62" transform="translate(126.277771 0) scale(0.996264)"/>
     <use xlink:href="#CMSS17-4c" transform="translate(174.482714 0) scale(0.996264)"/>
     <use xlink:href="#CMSS17-6f" transform="translate(225.169819 0) scale(0.996264)"/>
     <use xlink:href="#CMSS17-63" transform="translate(274.615881 0) scale(0.996264)"/>
     <use xlink:href="#CMSS17-6b" transform="translate(316.254703 0) scale(0.996264)"/>
     <use xlink:href="#CMSS17-46" transform="translate(361.857193 0) scale(0.996264)"/>
     <use xlink:href="#CMSS17-72" transform="translate(412.544298 0) scale(0.996264)"/>
     <use xlink:href="#CMSS17-65" transform="translate(444.454071 0) scale(0.996264)"/>
     <use xlink:href="#CMSS17-65" transform="translate(486.092893 0) scale(0.996264)"/>
     <use xlink:href="#CMSS17-42" transform="translate(527.731715 0) scale(0.996264)"/>
     <use xlink:href="#CMSS17-61" transform="translate(590.069755 0) scale(0.996264)"/>
     <use xlink:href="#CMSS17-74" transform="translate(634.991676 0) scale(0.996264)"/>
     <use xlink:href="#CMSS17-63" transform="translate(668.823242 0) scale(0.996264)"/>
     <use xlink:href="#CMSS17-68" transform="translate(710.462064 0) scale(0.996264)"/>
     <use xlink:href="#CMSS17-65" transform="translate(758.667007 0) scale(0.996264)"/>
     <use xlink:href="#CMSS17-64" transform="translate(800.305829 0) scale(0.996264)"/>
    </g>
   </g>
  </g>
 </g>
</svg>
