<?xml version="1.0" encoding="utf-8" standalone="no"?>
<!DOCTYPE svg PUBLIC "-//W3C//DTD SVG 1.1//EN"
  "http://www.w3.org/Graphics/SVG/1.1/DTD/svg11.dtd">
<svg xmlns:xlink="http://www.w3.org/1999/xlink" width="833.76pt" height="401.76pt" viewBox="0 0 833.76 401.76" xmlns="http://www.w3.org/2000/svg" version="1.1">
 <metadata>
  <rdf:RDF xmlns:dc="http://purl.org/dc/elements/1.1/" xmlns:cc="http://creativecommons.org/ns#" xmlns:rdf="http://www.w3.org/1999/02/22-rdf-syntax-ns#">
   <cc:Work>
    <dc:type rdf:resource="http://purl.org/dc/dcmitype/StillImage"/>
    <dc:date>2025-03-30T10:41:04.788704</dc:date>
    <dc:format>image/svg+xml</dc:format>
    <dc:creator>
     <cc:Agent>
      <dc:title>Matplotlib v3.10.0, https://matplotlib.org/</dc:title>
     </cc:Agent>
    </dc:creator>
   </cc:Work>
  </rdf:RDF>
 </metadata>
 <defs>
  <style type="text/css">*{stroke-linejoin: round; stroke-linecap: butt}</style>
 </defs>
 <g id="figure_1">
  <g id="patch_1">
   <path d="M 0 401.76 
L 833.76 401.76 
L 833.76 0 
L 0 0 
z
" style="fill: #ffffff"/>
  </g>
  <g id="axes_1">
   <g id="patch_2">
    <path d="M 31.776185 270.677032 
L 833.76 270.677032 
L 833.76 17.623055 
L 31.776185 17.623055 
z
" style="fill: #ffffff"/>
   </g>
   <g id="patch_3">
    <path d="M 68.229995 270.677032 
L 154.003665 270.677032 
L 154.003665 218.077955 
L 68.229995 218.077955 
z
" clip-path="url(#p74c3eef5d6)" style="fill: #7f7f7f"/>
   </g>
   <g id="patch_4">
    <path d="M 175.447082 270.677032 
L 261.220752 270.677032 
L 261.220752 218.077955 
L 175.447082 218.077955 
z
" clip-path="url(#p74c3eef5d6)" style="fill: #7f7f7f"/>
   </g>
   <g id="patch_5">
    <path d="M 282.66417 270.677032 
L 368.43784 270.677032 
L 368.43784 218.077955 
L 282.66417 218.077955 
z
" clip-path="url(#p74c3eef5d6)" style="fill: #7f7f7f"/>
   </g>
   <g id="patch_6">
    <path d="M 389.881257 270.677032 
L 475.654927 270.677032 
L 475.654927 218.077955 
L 389.881257 218.077955 
z
" clip-path="url(#p74c3eef5d6)" style="fill: #7f7f7f"/>
   </g>
   <g id="patch_7">
    <path d="M 497.098345 270.677032 
L 582.872015 270.677032 
L 582.872015 218.077955 
L 497.098345 218.077955 
z
" clip-path="url(#p74c3eef5d6)" style="fill: #7f7f7f"/>
   </g>
   <g id="patch_8">
    <path d="M 604.315433 270.677032 
L 690.089103 270.677032 
L 690.089103 218.077955 
L 604.315433 218.077955 
z
" clip-path="url(#p74c3eef5d6)" style="fill: #7f7f7f"/>
   </g>
   <g id="patch_9">
    <path d="M 711.53252 270.677032 
L 797.30619 270.677032 
L 797.30619 218.077955 
L 711.53252 218.077955 
z
" clip-path="url(#p74c3eef5d6)" style="fill: #7f7f7f"/>
   </g>
   <g id="patch_10">
    <path d="M 68.229995 218.077955 
L 154.003665 218.077955 
L 154.003665 212.908424 
L 68.229995 212.908424 
z
" clip-path="url(#p74c3eef5d6)" style="fill: #1f77b4"/>
   </g>
   <g id="patch_11">
    <path d="M 175.447082 218.077955 
L 261.220752 218.077955 
L 261.220752 212.192643 
L 175.447082 212.192643 
z
" clip-path="url(#p74c3eef5d6)" style="fill: #1f77b4"/>
   </g>
   <g id="patch_12">
    <path d="M 282.66417 218.077955 
L 368.43784 218.077955 
L 368.43784 213.694156 
L 282.66417 213.694156 
z
" clip-path="url(#p74c3eef5d6)" style="fill: #1f77b4"/>
   </g>
   <g id="patch_13">
    <path d="M 389.881257 218.077955 
L 475.654927 218.077955 
L 475.654927 43.969319 
L 389.881257 43.969319 
z
" clip-path="url(#p74c3eef5d6)" style="fill: #1f77b4"/>
   </g>
   <g id="patch_14">
    <path d="M 497.098345 218.077955 
L 582.872015 218.077955 
L 582.872015 215.210439 
L 497.098345 215.210439 
z
" clip-path="url(#p74c3eef5d6)" style="fill: #1f77b4"/>
   </g>
   <g id="patch_15">
    <path d="M 604.315433 218.077955 
L 690.089103 218.077955 
L 690.089103 177.985614 
L 604.315433 177.985614 
z
" clip-path="url(#p74c3eef5d6)" style="fill: #1f77b4"/>
   </g>
   <g id="patch_16">
    <path d="M 711.53252 218.077955 
L 797.30619 218.077955 
L 797.30619 214.354447 
L 711.53252 214.354447 
z
" clip-path="url(#p74c3eef5d6)" style="fill: #1f77b4"/>
   </g>
   <g id="patch_17">
    <path d="M 389.881257 218.077955 
L 475.654927 218.077955 
L 475.654927 48.307387 
L 389.881257 48.307387 
z
" clip-path="url(#p74c3eef5d6)" style="fill: #9467bd"/>
   </g>
   <g id="patch_18">
    <path d="M 389.881257 218.077955 
L 475.654927 218.077955 
L 475.654927 48.307387 
L 389.881257 48.307387 
z
" clip-path="url(#p74c3eef5d6)" style="fill: #9467bd"/>
   </g>
   <g id="patch_19">
    <path d="M 389.881257 218.077955 
L 475.654927 218.077955 
L 475.654927 48.307387 
L 389.881257 48.307387 
z
" clip-path="url(#p74c3eef5d6)" style="fill: #9467bd"/>
   </g>
   <g id="patch_20">
    <path d="M 389.881257 218.077955 
L 475.654927 218.077955 
L 475.654927 48.307387 
L 389.881257 48.307387 
z
" clip-path="url(#p74c3eef5d6)" style="fill: #9467bd"/>
   </g>
   <g id="patch_21">
    <path d="M 389.881257 218.077955 
L 475.654927 218.077955 
L 475.654927 48.307387 
L 389.881257 48.307387 
z
" clip-path="url(#p74c3eef5d6)" style="fill: #9467bd"/>
   </g>
   <g id="patch_22">
    <path d="M 389.881257 218.077955 
L 475.654927 218.077955 
L 475.654927 48.307387 
L 389.881257 48.307387 
z
" clip-path="url(#p74c3eef5d6)" style="fill: #9467bd"/>
   </g>
   <g id="patch_23">
    <path d="M 389.881257 218.077955 
L 475.654927 218.077955 
L 475.654927 48.307387 
L 389.881257 48.307387 
z
" clip-path="url(#p74c3eef5d6)" style="fill: #9467bd"/>
   </g>
   <g id="patch_24">
    <path d="M 604.315433 218.077955 
L 690.089103 218.077955 
L 690.089103 181.565881 
L 604.315433 181.565881 
z
" clip-path="url(#p74c3eef5d6)" style="fill: #ff7f0e"/>
   </g>
   <g id="patch_25">
    <path d="M 604.315433 218.077955 
L 690.089103 218.077955 
L 690.089103 181.565881 
L 604.315433 181.565881 
z
" clip-path="url(#p74c3eef5d6)" style="fill: #ff7f0e"/>
   </g>
   <g id="patch_26">
    <path d="M 604.315433 218.077955 
L 690.089103 218.077955 
L 690.089103 181.565881 
L 604.315433 181.565881 
z
" clip-path="url(#p74c3eef5d6)" style="fill: #ff7f0e"/>
   </g>
   <g id="patch_27">
    <path d="M 604.315433 218.077955 
L 690.089103 218.077955 
L 690.089103 181.565881 
L 604.315433 181.565881 
z
" clip-path="url(#p74c3eef5d6)" style="fill: #ff7f0e"/>
   </g>
   <g id="patch_28">
    <path d="M 604.315433 218.077955 
L 690.089103 218.077955 
L 690.089103 181.565881 
L 604.315433 181.565881 
z
" clip-path="url(#p74c3eef5d6)" style="fill: #ff7f0e"/>
   </g>
   <g id="patch_29">
    <path d="M 604.315433 218.077955 
L 690.089103 218.077955 
L 690.089103 181.565881 
L 604.315433 181.565881 
z
" clip-path="url(#p74c3eef5d6)" style="fill: #ff7f0e"/>
   </g>
   <g id="patch_30">
    <path d="M 604.315433 218.077955 
L 690.089103 218.077955 
L 690.089103 181.565881 
L 604.315433 181.565881 
z
" clip-path="url(#p74c3eef5d6)" style="fill: #ff7f0e"/>
   </g>
   <g id="matplotlib.axis_1">
    <g id="xtick_1">
     <g id="line2d_1">
      <defs>
       <path id="m37ff0082e3" d="M 0 0 
L 0 3.5 
" style="stroke: #000000; stroke-width: 0.8"/>
      </defs>
      <g>
       <use xlink:href="#m37ff0082e3" x="111.11683" y="270.677032" style="stroke: #000000; stroke-width: 0.8"/>
      </g>
     </g>
     <g id="text_1">
      <!-- CmpExclPartitionRanges -->
      <g transform="translate(64.123247 383.444402) rotate(-45) scale(0.14 -0.14)">
       <defs>
        <path id="CMSS17-43" d="M 3501 705 
C 3072 416 2874 332 2355 332 
C 1459 332 934 1304 934 2191 
C 934 3137 1472 4070 2381 4070 
C 2790 4070 3059 3954 3386 3748 
L 3475 4255 
C 3168 4409 2778 4480 2387 4480 
C 1158 4480 397 3343 397 2191 
C 397 924 1299 -77 2323 -77 
C 2874 -77 3066 -32 3539 268 
L 3501 705 
z
" transform="scale(0.015625)"/>
        <path id="CMSS17-6d" d="M 4288 1878 
C 4288 2309 4179 2816 3462 2816 
C 2982 2816 2694 2515 2566 2328 
C 2451 2668 2182 2816 1798 2816 
C 1363 2816 1088 2566 941 2386 
L 941 2783 
L 474 2783 
L 474 0 
L 960 0 
L 960 1556 
C 960 1936 1101 2425 1555 2425 
C 2138 2425 2138 2013 2138 1826 
L 2138 0 
L 2624 0 
L 2624 1556 
C 2624 1936 2765 2425 3219 2425 
C 3802 2425 3802 2013 3802 1826 
L 3802 0 
L 4288 0 
L 4288 1878 
z
" transform="scale(0.015625)"/>
        <path id="CMSS17-70" d="M 966 275 
C 1178 70 1466 -64 1773 -64 
C 2368 -64 2880 553 2880 1382 
C 2880 2147 2496 2816 1946 2816 
C 1626 2816 1242 2700 954 2470 
L 954 2764 
L 480 2764 
L 480 -1280 
L 966 -1280 
L 966 275 
z
M 966 2088 
C 1018 2166 1235 2412 1587 2412 
C 2035 2412 2394 1946 2394 1382 
C 2394 741 1958 326 1530 326 
C 1402 326 1267 358 1139 468 
C 966 624 966 721 966 812 
L 966 2088 
z
" transform="scale(0.015625)"/>
        <path id="CMSS17-45" d="M 1958 435 
C 1446 435 1216 435 1101 428 
L 1101 2105 
L 3085 2105 
L 3085 2496 
L 1101 2496 
L 1101 3993 
L 1926 3993 
C 2003 3993 2080 3987 2157 3987 
L 3251 3987 
L 3251 4403 
L 563 4403 
L 563 0 
L 3334 0 
L 3334 441 
L 1958 435 
z
" transform="scale(0.015625)"/>
        <path id="CMSS17-78" d="M 1587 1420 
L 2656 2752 
L 2099 2752 
L 1363 1785 
L 602 2752 
L 32 2752 
L 1139 1420 
L 0 0 
L 563 0 
L 1363 1126 
L 2195 0 
L 2758 0 
L 1587 1420 
z
" transform="scale(0.015625)"/>
        <path id="CMSS17-63" d="M 2464 2540 
C 2464 2585 2170 2713 2093 2739 
C 1882 2816 1613 2816 1542 2816 
C 710 2816 211 2092 211 1363 
C 211 595 768 -64 1517 -64 
C 1946 -64 2253 76 2502 243 
L 2464 665 
C 2189 454 1869 339 1523 339 
C 1024 339 698 774 698 1369 
C 698 1830 909 2412 1549 2412 
C 1901 2412 2099 2342 2394 2143 
L 2464 2540 
z
" transform="scale(0.015625)"/>
        <path id="CMSS17-6c" d="M 947 4416 
L 474 4416 
L 474 0 
L 947 0 
L 947 4416 
z
" transform="scale(0.015625)"/>
        <path id="CMSS17-50" d="M 2106 1856 
C 2874 1856 3501 2447 3501 3139 
C 3501 3818 2899 4416 2067 4416 
L 570 4416 
L 570 0 
L 1107 0 
L 1107 1856 
L 2106 1856 
z
M 1926 4057 
C 2669 4057 2995 3598 2995 3139 
C 2995 2711 2694 2227 1926 2227 
L 1094 2227 
L 1094 4057 
L 1926 4057 
z
" transform="scale(0.015625)"/>
        <path id="CMSS17-61" d="M 2406 1789 
C 2406 2399 1978 2816 1402 2816 
C 1120 2816 813 2764 461 2559 
L 499 2133 
C 659 2250 934 2438 1395 2438 
C 1722 2438 1920 2185 1920 1782 
L 1920 1536 
C 896 1504 256 1209 256 711 
C 256 452 416 -64 947 -64 
C 1043 -64 1562 -52 1933 224 
L 1933 -13 
L 2406 -13 
L 2406 1789 
z
M 1920 824 
C 1920 711 1920 559 1728 446 
C 1562 339 1350 326 1261 326 
C 941 326 723 503 723 723 
C 723 1165 1722 1209 1920 1216 
L 1920 824 
z
" transform="scale(0.015625)"/>
        <path id="CMSS17-72" d="M 954 1369 
C 954 1974 1395 2379 1958 2392 
L 1958 2816 
C 1549 2809 1165 2604 934 2270 
L 934 2783 
L 480 2783 
L 480 0 
L 954 0 
L 954 1369 
z
" transform="scale(0.015625)"/>
        <path id="CMSS17-74" d="M 1069 2380 
L 1901 2380 
L 1901 2752 
L 1069 2752 
L 1069 3520 
L 614 3520 
L 614 2752 
L 109 2752 
L 109 2380 
L 602 2380 
L 602 751 
C 602 384 685 -64 1107 -64 
C 1427 -64 1722 25 2003 172 
L 1901 551 
C 1747 416 1562 339 1363 339 
C 1082 339 1069 699 1069 860 
L 1069 2380 
z
" transform="scale(0.015625)"/>
        <path id="CMSS17-69" d="M 979 4224 
L 442 4224 
L 442 3686 
L 979 3686 
L 979 4224 
z
M 947 2752 
L 474 2752 
L 474 0 
L 947 0 
L 947 2752 
z
" transform="scale(0.015625)"/>
        <path id="CMSS17-6f" d="M 2829 1356 
C 2829 2175 2221 2816 1504 2816 
C 768 2816 173 2156 173 1356 
C 173 544 787 -64 1498 -64 
C 2227 -64 2829 563 2829 1356 
z
M 1504 339 
C 1050 339 659 710 659 1407 
C 659 2150 1114 2425 1498 2425 
C 1914 2425 2342 2124 2342 1407 
C 2342 684 1926 339 1504 339 
z
" transform="scale(0.015625)"/>
        <path id="CMSS17-6e" d="M 2618 1878 
C 2618 2283 2522 2816 1798 2816 
C 1389 2816 1120 2604 941 2386 
L 941 2783 
L 474 2783 
L 474 0 
L 960 0 
L 960 1556 
C 960 1962 1114 2425 1549 2425 
C 2112 2425 2131 2045 2131 1826 
L 2131 0 
L 2618 0 
L 2618 1878 
z
" transform="scale(0.015625)"/>
        <path id="CMSS17-52" d="M 2522 2099 
L 2534 2105 
C 3533 2450 3539 3125 3539 3244 
C 3539 3838 2925 4416 2003 4416 
L 570 4416 
L 570 0 
L 1094 0 
L 1094 2041 
L 2035 2041 
L 3168 0 
L 3706 0 
L 2522 2099 
z
M 1094 2432 
L 1094 4057 
L 1933 4057 
C 2746 4057 3034 3607 3034 3244 
C 3034 2907 2778 2432 1933 2432 
L 1094 2432 
z
" transform="scale(0.015625)"/>
        <path id="CMSS17-67" d="M 2848 2816 
C 2483 2809 2170 2739 1914 2617 
C 1702 2783 1485 2816 1338 2816 
C 781 2816 358 2356 358 1824 
C 358 1481 550 1222 563 1209 
C 448 1049 384 876 384 684 
C 384 460 474 300 544 211 
C 211 6 166 -308 166 -429 
C 166 -896 749 -1280 1498 -1280 
C 2253 -1280 2835 -896 2835 -423 
C 2835 460 1856 467 1587 467 
L 1069 467 
C 973 467 717 467 717 793 
C 717 921 774 1004 781 1011 
C 877 940 1075 832 1338 832 
C 1869 832 2310 1279 2310 1824 
C 2310 2128 2170 2349 2112 2425 
L 2131 2425 
C 2150 2425 2419 2444 2515 2444 
C 2720 2444 2739 2438 2918 2419 
L 2848 2816 
z
M 1338 1184 
C 1120 1184 813 1317 813 1824 
C 813 2375 1165 2463 1331 2463 
C 1549 2463 1856 2330 1856 1824 
C 1856 1272 1504 1184 1338 1184 
z
M 1581 0 
C 1734 0 2381 0 2381 -436 
C 2381 -711 1984 -928 1504 -928 
C 1018 -928 621 -717 621 -429 
C 621 -397 621 0 1062 0 
L 1581 0 
z
" transform="scale(0.015625)"/>
        <path id="CMSS17-65" d="M 2502 1375 
C 2502 1587 2490 2001 2285 2347 
C 2061 2713 1696 2816 1421 2816 
C 755 2816 192 2184 192 1363 
C 192 579 774 -64 1510 -64 
C 1798 -64 2150 19 2470 249 
C 2470 275 2458 414 2451 421 
C 2451 433 2432 629 2432 655 
C 2125 408 1773 326 1517 326 
C 1107 326 666 667 646 1375 
L 2502 1375 
z
M 698 1728 
C 781 2086 1062 2425 1421 2425 
C 1517 2425 1965 2412 2080 1728 
L 698 1728 
z
" transform="scale(0.015625)"/>
        <path id="CMSS17-73" d="M 2061 2623 
C 1683 2803 1389 2816 1197 2816 
C 742 2816 198 2655 198 2009 
C 198 1363 902 1222 1094 1183 
C 1389 1126 1715 1062 1715 742 
C 1715 339 1254 339 1171 339 
C 915 339 563 409 243 639 
L 166 211 
C 531 0 883 -64 1178 -64 
C 1965 -64 2163 416 2163 780 
C 2163 1094 1984 1305 1862 1401 
C 1651 1567 1574 1587 1050 1695 
C 960 1708 646 1779 646 2067 
C 646 2431 1050 2431 1139 2431 
C 1555 2431 1811 2303 1984 2207 
L 2061 2623 
z
" transform="scale(0.015625)"/>
       </defs>
       <use xlink:href="#CMSS17-43" transform="scale(0.996264)"/>
       <use xlink:href="#CMSS17-6d" transform="translate(59.855772 0) scale(0.996264)"/>
       <use xlink:href="#CMSS17-70" transform="translate(134.085026 0) scale(0.996264)"/>
       <use xlink:href="#CMSS17-45" transform="translate(182.289969 0) scale(0.996264)"/>
       <use xlink:href="#CMSS17-78" transform="translate(238.181982 0) scale(0.996264)"/>
       <use xlink:href="#CMSS17-63" transform="translate(281.182124 0) scale(0.996264)"/>
       <use xlink:href="#CMSS17-6c" transform="translate(322.820946 0) scale(0.996264)"/>
       <use xlink:href="#CMSS17-50" transform="translate(345.001669 0) scale(0.996264)"/>
       <use xlink:href="#CMSS17-61" transform="translate(402.134802 0) scale(0.996264)"/>
       <use xlink:href="#CMSS17-72" transform="translate(444.454268 0) scale(0.996264)"/>
       <use xlink:href="#CMSS17-74" transform="translate(476.364041 0) scale(0.996264)"/>
       <use xlink:href="#CMSS17-69" transform="translate(510.195607 0) scale(0.996264)"/>
       <use xlink:href="#CMSS17-74" transform="translate(532.37633 0) scale(0.996264)"/>
       <use xlink:href="#CMSS17-69" transform="translate(566.207897 0) scale(0.996264)"/>
       <use xlink:href="#CMSS17-6f" transform="translate(588.38862 0) scale(0.996264)"/>
       <use xlink:href="#CMSS17-6e" transform="translate(635.232244 0) scale(0.996264)"/>
       <use xlink:href="#CMSS17-52" transform="translate(683.437187 0) scale(0.996264)"/>
       <use xlink:href="#CMSS17-61" transform="translate(743.853342 0) scale(0.996264)"/>
       <use xlink:href="#CMSS17-6e" transform="translate(788.775262 0) scale(0.996264)"/>
       <use xlink:href="#CMSS17-67" transform="translate(836.980205 0) scale(0.996264)"/>
       <use xlink:href="#CMSS17-65" transform="translate(883.823829 0) scale(0.996264)"/>
       <use xlink:href="#CMSS17-73" transform="translate(925.462651 0) scale(0.996264)"/>
      </g>
     </g>
    </g>
    <g id="xtick_2">
     <g id="line2d_2">
      <g>
       <use xlink:href="#m37ff0082e3" x="218.333917" y="270.677032" style="stroke: #000000; stroke-width: 0.8"/>
      </g>
     </g>
     <g id="text_2">
      <!-- CmpProcessingUnits -->
      <g transform="translate(179.644016 366.837038) rotate(-45) scale(0.14 -0.14)">
       <defs>
        <path id="CMSS17-55" d="M 3552 4416 
L 3066 4416 
L 3066 1459 
C 3066 608 2547 230 2074 230 
C 1587 230 1101 627 1101 1452 
L 1101 4416 
L 563 4416 
L 563 1465 
C 563 544 1274 -128 2067 -128 
C 2861 -128 3552 544 3552 1465 
L 3552 4416 
z
" transform="scale(0.015625)"/>
       </defs>
       <use xlink:href="#CMSS17-43" transform="scale(0.996264)"/>
       <use xlink:href="#CMSS17-6d" transform="translate(59.855772 0) scale(0.996264)"/>
       <use xlink:href="#CMSS17-70" transform="translate(134.085026 0) scale(0.996264)"/>
       <use xlink:href="#CMSS17-50" transform="translate(182.289969 0) scale(0.996264)"/>
       <use xlink:href="#CMSS17-72" transform="translate(242.025555 0) scale(0.996264)"/>
       <use xlink:href="#CMSS17-6f" transform="translate(273.935328 0) scale(0.996264)"/>
       <use xlink:href="#CMSS17-63" transform="translate(323.38139 0) scale(0.996264)"/>
       <use xlink:href="#CMSS17-65" transform="translate(365.020212 0) scale(0.996264)"/>
       <use xlink:href="#CMSS17-73" transform="translate(406.659034 0) scale(0.996264)"/>
       <use xlink:href="#CMSS17-73" transform="translate(442.572576 0) scale(0.996264)"/>
       <use xlink:href="#CMSS17-69" transform="translate(478.486118 0) scale(0.996264)"/>
       <use xlink:href="#CMSS17-6e" transform="translate(500.666841 0) scale(0.996264)"/>
       <use xlink:href="#CMSS17-67" transform="translate(548.871785 0) scale(0.996264)"/>
       <use xlink:href="#CMSS17-55" transform="translate(595.715408 0) scale(0.996264)"/>
       <use xlink:href="#CMSS17-6e" transform="translate(659.855148 0) scale(0.996264)"/>
       <use xlink:href="#CMSS17-69" transform="translate(708.060091 0) scale(0.996264)"/>
       <use xlink:href="#CMSS17-74" transform="translate(730.240814 0) scale(0.996264)"/>
       <use xlink:href="#CMSS17-73" transform="translate(764.072381 0) scale(0.996264)"/>
      </g>
     </g>
    </g>
    <g id="xtick_3">
     <g id="line2d_3">
      <g>
       <use xlink:href="#m37ff0082e3" x="325.551005" y="270.677032" style="stroke: #000000; stroke-width: 0.8"/>
      </g>
     </g>
     <g id="text_3">
      <!-- Hybrid -->
      <g transform="translate(314.826832 310.905582) rotate(-45) scale(0.14 -0.14)">
       <defs>
        <path id="CMSS17-48" d="M 3674 4416 
L 3136 4416 
L 3136 2496 
L 1101 2496 
L 1101 4416 
L 563 4416 
L 563 0 
L 1101 0 
L 1101 2105 
L 3136 2105 
L 3136 0 
L 3674 0 
L 3674 4416 
z
" transform="scale(0.015625)"/>
        <path id="CMSS17-79" d="M 2675 2752 
L 2176 2752 
C 1632 1293 1446 701 1434 383 
L 1427 383 
C 1408 695 1126 1459 902 2006 
L 602 2752 
L 83 2752 
L 1216 14 
C 1146 -177 1043 -464 1011 -527 
C 870 -884 774 -884 672 -884 
C 646 -884 442 -877 211 -807 
L 250 -1229 
C 410 -1261 570 -1280 685 -1280 
C 845 -1280 1165 -1280 1459 -495 
L 2675 2752 
z
" transform="scale(0.015625)"/>
        <path id="CMSS17-62" d="M 954 4416 
L 480 4416 
L 480 -13 
L 966 -13 
L 966 275 
C 1210 38 1504 -64 1766 -64 
C 2381 -64 2880 559 2880 1382 
C 2880 2133 2496 2816 1926 2816 
C 1523 2816 1165 2649 954 2476 
L 954 4416 
z
M 966 2095 
C 1107 2276 1306 2425 1587 2425 
C 1965 2425 2394 2146 2394 1382 
C 2394 566 1882 326 1530 326 
C 1402 326 1267 358 1139 468 
C 966 624 966 721 966 812 
L 966 2095 
z
" transform="scale(0.015625)"/>
        <path id="CMSS17-64" d="M 2611 4416 
L 2138 4416 
L 2138 2495 
C 1939 2662 1613 2816 1254 2816 
C 672 2816 211 2179 211 1375 
C 211 572 666 -64 1235 -64 
C 1677 -64 1971 172 2125 307 
L 2125 -13 
L 2611 -13 
L 2611 4416 
z
M 2125 851 
C 2125 760 2125 663 1926 488 
C 1798 378 1645 326 1498 326 
C 1152 326 698 585 698 1369 
C 698 2185 1210 2425 1562 2425 
C 1798 2425 1990 2308 2125 2114 
L 2125 851 
z
" transform="scale(0.015625)"/>
       </defs>
       <use xlink:href="#CMSS17-48" transform="scale(0.996264)"/>
       <use xlink:href="#CMSS17-79" transform="translate(66.061519 0) scale(0.996264)"/>
       <use xlink:href="#CMSS17-62" transform="translate(109.061661 0) scale(0.996264)"/>
       <use xlink:href="#CMSS17-72" transform="translate(154.66415 0) scale(0.996264)"/>
       <use xlink:href="#CMSS17-69" transform="translate(186.573923 0) scale(0.996264)"/>
       <use xlink:href="#CMSS17-64" transform="translate(208.754646 0) scale(0.996264)"/>
      </g>
     </g>
    </g>
    <g id="xtick_4">
     <g id="line2d_4">
      <g>
       <use xlink:href="#m37ff0082e3" x="432.768092" y="270.677032" style="stroke: #000000; stroke-width: 0.8"/>
      </g>
     </g>
     <g id="text_4">
      <!-- LocalPagesAndMerge -->
      <g transform="translate(392.143954 370.705512) rotate(-45) scale(0.14 -0.14)">
       <defs>
        <path id="CMSS17-4c" d="M 1670 416 
C 1594 416 1517 409 1440 409 
L 1101 409 
L 1101 4416 
L 563 4416 
L 563 0 
L 3002 0 
L 3002 416 
L 1670 416 
z
" transform="scale(0.015625)"/>
        <path id="CMSS17-41" d="M 2272 4416 
L 1722 4416 
L 166 0 
L 653 0 
L 1101 1280 
L 2816 1280 
L 3270 0 
L 3827 0 
L 2272 4416 
z
M 2694 1638 
L 1222 1638 
C 1530 2530 1914 3638 1958 3924 
L 1965 3924 
C 2010 3663 2138 3281 2246 2956 
L 2694 1638 
z
" transform="scale(0.015625)"/>
        <path id="CMSS17-4d" d="M 3194 2373 
L 2886 1476 
C 2835 1311 2662 795 2624 592 
L 2618 592 
C 2598 719 2560 853 2458 1177 
C 2400 1368 2336 1565 2272 1743 
L 1325 4416 
L 576 4416 
L 576 0 
L 1075 0 
L 1075 3899 
L 1082 3899 
C 1082 3893 1139 3613 1530 2500 
L 2374 102 
L 2848 102 
L 3610 2233 
C 3661 2379 3821 2843 3891 3066 
C 3955 3257 4115 3728 4154 3912 
L 4160 3912 
L 4160 0 
L 4666 0 
L 4666 4416 
L 3923 4416 
L 3194 2373 
z
" transform="scale(0.015625)"/>
       </defs>
       <use xlink:href="#CMSS17-4c" transform="scale(0.996264)"/>
       <use xlink:href="#CMSS17-6f" transform="translate(50.687105 0) scale(0.996264)"/>
       <use xlink:href="#CMSS17-63" transform="translate(100.133168 0) scale(0.996264)"/>
       <use xlink:href="#CMSS17-61" transform="translate(141.77199 0) scale(0.996264)"/>
       <use xlink:href="#CMSS17-6c" transform="translate(186.69391 0) scale(0.996264)"/>
       <use xlink:href="#CMSS17-50" transform="translate(208.874633 0) scale(0.996264)"/>
       <use xlink:href="#CMSS17-61" transform="translate(266.007766 0) scale(0.996264)"/>
       <use xlink:href="#CMSS17-67" transform="translate(310.929686 0) scale(0.996264)"/>
       <use xlink:href="#CMSS17-65" transform="translate(357.77331 0) scale(0.996264)"/>
       <use xlink:href="#CMSS17-73" transform="translate(399.412132 0) scale(0.996264)"/>
       <use xlink:href="#CMSS17-41" transform="translate(435.325674 0) scale(0.996264)"/>
       <use xlink:href="#CMSS17-6e" transform="translate(497.543529 0) scale(0.996264)"/>
       <use xlink:href="#CMSS17-64" transform="translate(545.748472 0) scale(0.996264)"/>
       <use xlink:href="#CMSS17-4d" transform="translate(593.953415 0) scale(0.996264)"/>
       <use xlink:href="#CMSS17-65" transform="translate(675.629445 0) scale(0.996264)"/>
       <use xlink:href="#CMSS17-72" transform="translate(717.268267 0) scale(0.996264)"/>
       <use xlink:href="#CMSS17-67" transform="translate(749.17804 0) scale(0.996264)"/>
       <use xlink:href="#CMSS17-65" transform="translate(796.021663 0) scale(0.996264)"/>
      </g>
     </g>
    </g>
    <g id="xtick_5">
     <g id="line2d_5">
      <g>
       <use xlink:href="#m37ff0082e3" x="539.98518" y="270.677032" style="stroke: #000000; stroke-width: 0.8"/>
      </g>
     </g>
     <g id="text_5">
      <!-- OnDemand -->
      <g transform="translate(519.709661 330.008273) rotate(-45) scale(0.14 -0.14)">
       <defs>
        <path id="CMSS17-4f" d="M 4096 2201 
C 4096 3541 3219 4544 2214 4544 
C 1210 4544 333 3535 333 2201 
C 333 855 1222 -128 2214 -128 
C 3206 -128 4096 855 4096 2201 
z
M 2214 275 
C 1510 275 870 1067 870 2285 
C 870 3470 1549 4140 2214 4140 
C 2880 4140 3558 3470 3558 2285 
C 3558 1061 2912 275 2214 275 
z
" transform="scale(0.015625)"/>
        <path id="CMSS17-44" d="M 570 4416 
L 570 0 
L 2144 0 
C 3194 0 4000 981 4000 2169 
C 4000 3396 3194 4416 2144 4416 
L 570 4416 
z
M 1094 358 
L 1094 4057 
L 2003 4057 
C 2861 4057 3475 3275 3475 2169 
C 3475 1108 2867 358 2003 358 
L 1094 358 
z
" transform="scale(0.015625)"/>
       </defs>
       <use xlink:href="#CMSS17-4f" transform="scale(0.996264)"/>
       <use xlink:href="#CMSS17-6e" transform="translate(69.024255 0) scale(0.996264)"/>
       <use xlink:href="#CMSS17-44" transform="translate(117.229198 0) scale(0.996264)"/>
       <use xlink:href="#CMSS17-65" transform="translate(184.77204 0) scale(0.996264)"/>
       <use xlink:href="#CMSS17-6d" transform="translate(226.410862 0) scale(0.996264)"/>
       <use xlink:href="#CMSS17-61" transform="translate(300.640117 0) scale(0.996264)"/>
       <use xlink:href="#CMSS17-6e" transform="translate(345.562037 0) scale(0.996264)"/>
       <use xlink:href="#CMSS17-64" transform="translate(393.76698 0) scale(0.996264)"/>
      </g>
     </g>
    </g>
    <g id="xtick_6">
     <g id="line2d_6">
      <g>
       <use xlink:href="#m37ff0082e3" x="647.202268" y="270.677032" style="stroke: #000000; stroke-width: 0.8"/>
      </g>
     </g>
     <g id="text_6">
      <!-- Radix -->
      <g transform="translate(638.427176 307.007419) rotate(-45) scale(0.14 -0.14)">
       <use xlink:href="#CMSS17-52" transform="scale(0.996264)"/>
       <use xlink:href="#CMSS17-61" transform="translate(60.416155 0) scale(0.996264)"/>
       <use xlink:href="#CMSS17-64" transform="translate(105.338075 0) scale(0.996264)"/>
       <use xlink:href="#CMSS17-69" transform="translate(153.543019 0) scale(0.996264)"/>
       <use xlink:href="#CMSS17-78" transform="translate(175.723742 0) scale(0.996264)"/>
      </g>
     </g>
    </g>
    <g id="xtick_7">
     <g id="line2d_7">
      <g>
       <use xlink:href="#m37ff0082e3" x="754.419355" y="270.677032" style="stroke: #000000; stroke-width: 0.8"/>
      </g>
     </g>
     <g id="text_7">
      <!-- Smb* -->
      <g transform="translate(745.493 307.309947) rotate(-45) scale(0.14 -0.14)">
       <defs>
        <path id="CMSS17-53" d="M 2797 4230 
C 2515 4396 2208 4544 1690 4544 
C 864 4544 333 3934 333 3309 
C 333 3064 403 2787 653 2504 
C 902 2220 1184 2143 1542 2053 
C 1690 2014 1939 1943 1984 1924 
C 2342 1782 2515 1454 2515 1144 
C 2515 738 2202 307 1645 307 
C 1453 307 890 339 358 829 
L 269 320 
C 794 -64 1363 -128 1651 -128 
C 2438 -128 3002 494 3002 1202 
C 3002 1460 2925 1789 2656 2092 
C 2394 2381 2163 2446 1638 2588 
C 1338 2665 1146 2717 986 2916 
C 877 3058 819 3193 819 3367 
C 819 3728 1126 4121 1690 4121 
C 1971 4121 2336 4063 2707 3715 
L 2797 4230 
z
" transform="scale(0.015625)"/>
        <path id="CMSS17-2a" d="M 1664 3125 
L 2253 2695 
C 2330 2637 2349 2625 2406 2625 
C 2509 2625 2624 2721 2624 2849 
C 2624 2971 2534 3022 2483 3048 
L 1798 3420 
L 2490 3792 
C 2566 3837 2624 3901 2624 3991 
C 2624 4120 2509 4216 2406 4216 
C 2349 4216 2304 4190 2253 4152 
L 1664 3715 
L 1715 4582 
C 1715 4729 1606 4800 1498 4800 
C 1408 4800 1286 4735 1286 4582 
L 1338 3715 
L 749 4145 
C 672 4203 653 4216 595 4216 
C 493 4216 378 4120 378 3991 
C 378 3869 467 3818 518 3792 
L 1203 3420 
L 512 3048 
C 435 3003 378 2939 378 2849 
C 378 2721 493 2625 595 2625 
C 653 2625 698 2650 749 2689 
L 1338 3125 
L 1286 2259 
C 1286 2111 1395 2041 1504 2041 
C 1594 2041 1715 2105 1715 2259 
L 1709 2317 
L 1664 3125 
z
" transform="scale(0.015625)"/>
       </defs>
       <use xlink:href="#CMSS17-53" transform="scale(0.996264)"/>
       <use xlink:href="#CMSS17-6d" transform="translate(52.048516 0) scale(0.996264)"/>
       <use xlink:href="#CMSS17-62" transform="translate(126.277771 0) scale(0.996264)"/>
       <use xlink:href="#CMSS17-2a" transform="translate(174.482714 0) scale(0.996264)"/>
      </g>
     </g>
    </g>
    <g id="text_8">
     <!-- Implementations -->
     <g transform="translate(386.08826 399.047972) scale(0.14 -0.14)">
      <defs>
       <path id="CMSS17-49" d="M 1094 4416 
L 557 4416 
L 557 0 
L 1094 0 
L 1094 4416 
z
" transform="scale(0.015625)"/>
      </defs>
      <use xlink:href="#CMSS17-49" transform="scale(0.996264)"/>
      <use xlink:href="#CMSS17-6d" transform="translate(25.783926 0) scale(0.996264)"/>
      <use xlink:href="#CMSS17-70" transform="translate(100.01318 0) scale(0.996264)"/>
      <use xlink:href="#CMSS17-6c" transform="translate(148.218123 0) scale(0.996264)"/>
      <use xlink:href="#CMSS17-65" transform="translate(170.398846 0) scale(0.996264)"/>
      <use xlink:href="#CMSS17-6d" transform="translate(212.037668 0) scale(0.996264)"/>
      <use xlink:href="#CMSS17-65" transform="translate(286.266923 0) scale(0.996264)"/>
      <use xlink:href="#CMSS17-6e" transform="translate(327.905745 0) scale(0.996264)"/>
      <use xlink:href="#CMSS17-74" transform="translate(376.110688 0) scale(0.996264)"/>
      <use xlink:href="#CMSS17-61" transform="translate(409.942255 0) scale(0.996264)"/>
      <use xlink:href="#CMSS17-74" transform="translate(454.864175 0) scale(0.996264)"/>
      <use xlink:href="#CMSS17-69" transform="translate(488.695742 0) scale(0.996264)"/>
      <use xlink:href="#CMSS17-6f" transform="translate(510.876465 0) scale(0.996264)"/>
      <use xlink:href="#CMSS17-6e" transform="translate(557.720088 0) scale(0.996264)"/>
      <use xlink:href="#CMSS17-73" transform="translate(605.925031 0) scale(0.996264)"/>
     </g>
    </g>
   </g>
   <g id="matplotlib.axis_2">
    <g id="ytick_1">
     <g id="line2d_8">
      <defs>
       <path id="m62f819e18c" d="M 0 0 
L -3.5 0 
" style="stroke: #000000; stroke-width: 0.8"/>
      </defs>
      <g>
       <use xlink:href="#m62f819e18c" x="31.776185" y="270.677032" style="stroke: #000000; stroke-width: 0.8"/>
      </g>
     </g>
     <g id="text_9">
      <!-- $\mathdefault{0}$ -->
      <g transform="translate(17.947696 275.51997) scale(0.14 -0.14)">
       <defs>
        <path id="CMR17-30" d="M 2688 2038 
C 2688 2430 2682 3099 2413 3613 
C 2176 4063 1798 4224 1466 4224 
C 1158 4224 768 4082 525 3620 
C 269 3137 243 2539 243 2038 
C 243 1671 250 1112 448 623 
C 723 -39 1216 -128 1466 -128 
C 1760 -128 2208 -7 2470 604 
C 2662 1048 2688 1568 2688 2038 
z
M 1466 -26 
C 1056 -26 813 328 723 816 
C 653 1196 653 1749 653 2109 
C 653 2604 653 3015 736 3407 
C 858 3954 1216 4121 1466 4121 
C 1728 4121 2067 3947 2189 3420 
C 2272 3054 2278 2623 2278 2109 
C 2278 1691 2278 1176 2202 797 
C 2067 96 1690 -26 1466 -26 
z
" transform="scale(0.015625)"/>
       </defs>
       <use xlink:href="#CMR17-30" transform="scale(0.996264)"/>
      </g>
     </g>
    </g>
    <g id="ytick_2">
     <g id="line2d_9">
      <g>
       <use xlink:href="#m62f819e18c" x="31.776185" y="234.526464" style="stroke: #000000; stroke-width: 0.8"/>
      </g>
     </g>
     <g id="text_10">
      <!-- $\mathdefault{1}$ -->
      <g transform="translate(17.947696 239.369402) scale(0.14 -0.14)">
       <defs>
        <path id="CMR17-31" d="M 1702 4083 
C 1702 4217 1696 4224 1606 4224 
C 1357 3927 979 3833 621 3820 
C 602 3820 570 3820 563 3808 
C 557 3795 557 3782 557 3648 
C 755 3648 1088 3686 1344 3839 
L 1344 467 
C 1344 243 1331 166 781 166 
L 589 166 
L 589 0 
C 896 6 1216 12 1523 12 
C 1830 12 2150 6 2458 0 
L 2458 166 
L 2266 166 
C 1715 166 1702 236 1702 467 
L 1702 4083 
z
" transform="scale(0.015625)"/>
       </defs>
       <use xlink:href="#CMR17-31" transform="scale(0.996264)"/>
      </g>
     </g>
    </g>
    <g id="ytick_3">
     <g id="line2d_10">
      <g>
       <use xlink:href="#m62f819e18c" x="31.776185" y="198.375895" style="stroke: #000000; stroke-width: 0.8"/>
      </g>
     </g>
     <g id="text_11">
      <!-- $\mathdefault{2}$ -->
      <g transform="translate(17.947696 203.218834) scale(0.14 -0.14)">
       <defs>
        <path id="CMR17-32" d="M 2669 990 
L 2554 990 
C 2490 537 2438 460 2413 422 
C 2381 371 1920 371 1830 371 
L 602 371 
C 832 620 1280 1073 1824 1596 
C 2214 1966 2669 2400 2669 3033 
C 2669 3788 2067 4224 1395 4224 
C 691 4224 262 3603 262 3027 
C 262 2777 448 2745 525 2745 
C 589 2745 781 2783 781 3007 
C 781 3206 614 3264 525 3264 
C 486 3264 448 3257 422 3244 
C 544 3788 915 4057 1306 4057 
C 1862 4057 2227 3616 2227 3033 
C 2227 2477 1901 1998 1536 1583 
L 262 147 
L 262 0 
L 2515 0 
L 2669 990 
z
" transform="scale(0.015625)"/>
       </defs>
       <use xlink:href="#CMR17-32" transform="scale(0.996264)"/>
      </g>
     </g>
    </g>
    <g id="ytick_4">
     <g id="line2d_11">
      <g>
       <use xlink:href="#m62f819e18c" x="31.776185" y="162.225327" style="stroke: #000000; stroke-width: 0.8"/>
      </g>
     </g>
     <g id="text_12">
      <!-- $\mathdefault{3}$ -->
      <g transform="translate(17.947696 167.068266) scale(0.14 -0.14)">
       <defs>
        <path id="CMR17-33" d="M 1414 2176 
C 1984 2176 2234 1673 2234 1094 
C 2234 322 1824 25 1453 25 
C 1114 25 563 193 390 691 
C 422 678 454 678 486 678 
C 640 678 755 780 755 947 
C 755 1132 614 1216 486 1216 
C 378 1216 211 1164 211 927 
C 211 335 787 -128 1466 -128 
C 2176 -128 2720 432 2720 1087 
C 2720 1718 2208 2176 1600 2246 
C 2086 2347 2554 2776 2554 3353 
C 2554 3856 2048 4224 1472 4224 
C 890 4224 378 3862 378 3347 
C 378 3123 544 3084 627 3084 
C 762 3084 877 3167 877 3334 
C 877 3500 762 3584 627 3584 
C 602 3584 570 3584 544 3571 
C 730 3999 1235 4076 1459 4076 
C 1683 4076 2106 3966 2106 3347 
C 2106 3167 2080 2851 1862 2574 
C 1670 2329 1453 2316 1242 2297 
C 1210 2297 1062 2284 1037 2284 
C 992 2278 966 2272 966 2227 
C 966 2182 973 2176 1101 2176 
L 1414 2176 
z
" transform="scale(0.015625)"/>
       </defs>
       <use xlink:href="#CMR17-33" transform="scale(0.996264)"/>
      </g>
     </g>
    </g>
    <g id="ytick_5">
     <g id="line2d_12">
      <g>
       <use xlink:href="#m62f819e18c" x="31.776185" y="126.074759" style="stroke: #000000; stroke-width: 0.8"/>
      </g>
     </g>
     <g id="text_13">
      <!-- $\mathdefault{4}$ -->
      <g transform="translate(17.947696 130.917697) scale(0.14 -0.14)">
       <defs>
        <path id="CMR17-34" d="M 2150 4147 
C 2150 4281 2144 4288 2029 4288 
L 128 1254 
L 128 1088 
L 1779 1088 
L 1779 460 
C 1779 230 1766 166 1318 166 
L 1197 166 
L 1197 0 
C 1402 12 1747 12 1965 12 
C 2182 12 2528 12 2733 0 
L 2733 166 
L 2611 166 
C 2163 166 2150 230 2150 460 
L 2150 1088 
L 2803 1088 
L 2803 1254 
L 2150 1254 
L 2150 4147 
z
M 1798 3723 
L 1798 1254 
L 256 1254 
L 1798 3723 
z
" transform="scale(0.015625)"/>
       </defs>
       <use xlink:href="#CMR17-34" transform="scale(0.996264)"/>
      </g>
     </g>
    </g>
    <g id="ytick_6">
     <g id="line2d_13">
      <g>
       <use xlink:href="#m62f819e18c" x="31.776185" y="89.924191" style="stroke: #000000; stroke-width: 0.8"/>
      </g>
     </g>
     <g id="text_14">
      <!-- $\mathdefault{5}$ -->
      <g transform="translate(17.947696 94.767129) scale(0.14 -0.14)">
       <defs>
        <path id="CMR17-35" d="M 730 3750 
C 794 3724 1056 3641 1325 3641 
C 1920 3641 2246 3961 2432 4140 
C 2432 4191 2432 4224 2394 4224 
C 2387 4224 2374 4224 2323 4198 
C 2099 4102 1837 4032 1517 4032 
C 1325 4032 1037 4055 723 4191 
C 653 4224 640 4224 634 4224 
C 602 4224 595 4217 595 4090 
L 595 2231 
C 595 2113 595 2080 659 2080 
C 691 2080 704 2093 736 2139 
C 941 2435 1222 2560 1542 2560 
C 1766 2560 2246 2415 2246 1293 
C 2246 1087 2246 716 2054 422 
C 1894 159 1645 25 1370 25 
C 947 25 518 319 403 812 
C 429 806 480 793 506 793 
C 589 793 749 838 749 1036 
C 749 1209 627 1280 506 1280 
C 358 1280 262 1190 262 1011 
C 262 454 704 -128 1382 -128 
C 2042 -128 2669 441 2669 1267 
C 2669 2054 2170 2662 1549 2662 
C 1222 2662 947 2540 730 2304 
L 730 3750 
z
" transform="scale(0.015625)"/>
       </defs>
       <use xlink:href="#CMR17-35" transform="scale(0.996264)"/>
      </g>
     </g>
    </g>
    <g id="ytick_7">
     <g id="line2d_14">
      <g>
       <use xlink:href="#m62f819e18c" x="31.776185" y="53.773623" style="stroke: #000000; stroke-width: 0.8"/>
      </g>
     </g>
     <g id="text_15">
      <!-- $\mathdefault{6}$ -->
      <g transform="translate(17.947696 58.616561) scale(0.14 -0.14)">
       <defs>
        <path id="CMR17-36" d="M 678 2198 
C 678 3712 1395 4076 1811 4076 
C 1946 4076 2272 4049 2400 3782 
C 2298 3782 2106 3782 2106 3558 
C 2106 3385 2246 3328 2336 3328 
C 2394 3328 2566 3353 2566 3571 
C 2566 3987 2246 4224 1805 4224 
C 1043 4224 243 3411 243 2011 
C 243 257 966 -128 1478 -128 
C 2099 -128 2688 431 2688 1295 
C 2688 2101 2170 2688 1517 2688 
C 1126 2688 838 2430 678 1979 
L 678 2198 
z
M 1478 25 
C 691 25 691 1212 691 1450 
C 691 1914 909 2585 1504 2585 
C 1613 2585 1926 2585 2138 2140 
C 2253 1889 2253 1624 2253 1302 
C 2253 954 2253 696 2118 438 
C 1978 173 1773 25 1478 25 
z
" transform="scale(0.015625)"/>
       </defs>
       <use xlink:href="#CMR17-36" transform="scale(0.996264)"/>
      </g>
     </g>
    </g>
    <g id="ytick_8">
     <g id="line2d_15">
      <g>
       <use xlink:href="#m62f819e18c" x="31.776185" y="17.623055" style="stroke: #000000; stroke-width: 0.8"/>
      </g>
     </g>
     <g id="text_16">
      <!-- $\mathdefault{7}$ -->
      <g transform="translate(17.947696 22.465993) scale(0.14 -0.14)">
       <defs>
        <path id="CMR17-37" d="M 2886 3955 
L 2886 4096 
L 1382 4096 
C 634 4096 621 4166 595 4288 
L 480 4288 
L 294 3104 
L 410 3104 
C 429 3226 474 3552 550 3673 
C 589 3724 1062 3724 1171 3724 
L 2579 3724 
L 1869 2670 
C 1395 1961 1069 1003 1069 166 
C 1069 89 1069 -128 1299 -128 
C 1530 -128 1530 89 1530 172 
L 1530 466 
C 1530 1514 1709 2204 2003 2644 
L 2886 3955 
z
" transform="scale(0.015625)"/>
       </defs>
       <use xlink:href="#CMR17-37" transform="scale(0.996264)"/>
      </g>
     </g>
    </g>
    <g id="text_17">
     <!-- Peak Heap Usage (GiB) -->
     <g transform="translate(10.460772 212.328319) rotate(-90) scale(0.14 -0.14)">
      <defs>
       <path id="CMSS17-6b" d="M 1696 1686 
L 2688 2735 
L 2074 2735 
L 954 1552 
L 954 4416 
L 480 4416 
L 480 0 
L 947 0 
L 947 891 
L 1376 1342 
L 2278 0 
L 2822 0 
L 1696 1686 
z
" transform="scale(0.015625)"/>
       <path id="CMSS17-28" d="M 1613 4800 
C 1267 4447 474 3627 474 1603 
C 474 -428 1267 -1242 1613 -1600 
L 2003 -1600 
C 1216 -781 960 366 960 1596 
C 960 2820 1203 3973 2003 4800 
L 1613 4800 
z
" transform="scale(0.015625)"/>
       <path id="CMSS17-47" d="M 3610 1868 
L 2336 1868 
L 2336 1472 
L 3123 1472 
L 3123 473 
C 2874 403 2618 352 2362 352 
C 1466 352 934 1311 934 2220 
C 934 3123 1491 4070 2362 4070 
C 2854 4070 3130 3916 3469 3660 
L 3552 4172 
C 3130 4390 2867 4480 2387 4480 
C 1146 4480 397 3353 397 2201 
C 397 1100 1152 -64 2349 -64 
C 2797 -64 3213 51 3610 249 
L 3610 1868 
z
" transform="scale(0.015625)"/>
       <path id="CMSS17-42" d="M 570 4416 
L 570 0 
L 2163 0 
C 3034 0 3667 575 3667 1200 
C 3667 1684 3251 2175 2502 2316 
C 3334 2559 3501 3039 3501 3311 
C 3501 3880 2874 4416 1997 4416 
L 570 4416 
z
M 1088 2496 
L 1088 4057 
L 1824 4057 
C 2483 4057 3002 3722 3002 3305 
C 3002 2925 2592 2496 1766 2496 
L 1088 2496 
z
M 1088 358 
L 1088 2105 
L 1939 2105 
C 2630 2105 3162 1678 3162 1206 
C 3162 772 2694 358 1984 358 
L 1088 358 
z
" transform="scale(0.015625)"/>
       <path id="CMSS17-29" d="M 723 -1600 
C 1069 -1248 1862 -428 1862 1596 
C 1862 3627 1069 4440 723 4800 
L 333 4800 
C 1120 3979 1376 2833 1376 1603 
C 1376 379 1133 -774 333 -1600 
L 723 -1600 
z
" transform="scale(0.015625)"/>
      </defs>
      <use xlink:href="#CMSS17-50" transform="scale(0.996264)"/>
      <use xlink:href="#CMSS17-65" transform="translate(57.133132 0) scale(0.996264)"/>
      <use xlink:href="#CMSS17-61" transform="translate(98.771954 0) scale(0.996264)"/>
      <use xlink:href="#CMSS17-6b" transform="translate(143.693875 0) scale(0.996264)"/>
      <use xlink:href="#CMSS17-48" transform="translate(220.525477 0) scale(0.996264)"/>
      <use xlink:href="#CMSS17-65" transform="translate(286.586996 0) scale(0.996264)"/>
      <use xlink:href="#CMSS17-61" transform="translate(328.225818 0) scale(0.996264)"/>
      <use xlink:href="#CMSS17-70" transform="translate(373.147739 0) scale(0.996264)"/>
      <use xlink:href="#CMSS17-55" transform="translate(452.581795 0) scale(0.996264)"/>
      <use xlink:href="#CMSS17-73" transform="translate(516.721535 0) scale(0.996264)"/>
      <use xlink:href="#CMSS17-61" transform="translate(552.635077 0) scale(0.996264)"/>
      <use xlink:href="#CMSS17-67" transform="translate(597.556998 0) scale(0.996264)"/>
      <use xlink:href="#CMSS17-65" transform="translate(644.400621 0) scale(0.996264)"/>
      <use xlink:href="#CMSS17-28" transform="translate(717.268556 0) scale(0.996264)"/>
      <use xlink:href="#CMSS17-47" transform="translate(753.70247 0) scale(0.996264)"/>
      <use xlink:href="#CMSS17-69" transform="translate(816.160696 0) scale(0.996264)"/>
      <use xlink:href="#CMSS17-42" transform="translate(838.341419 0) scale(0.996264)"/>
      <use xlink:href="#CMSS17-29" transform="translate(900.679459 0) scale(0.996264)"/>
     </g>
    </g>
   </g>
   <g id="line2d_16">
    <path d="M 31.776185 218.077955 
L 833.76 218.077955 
" clip-path="url(#p74c3eef5d6)" style="fill: none; stroke-dasharray: 5.55,2.4; stroke-dashoffset: 0; stroke: #000000; stroke-width: 1.5"/>
   </g>
   <g id="patch_31">
    <path d="M 31.776185 270.677032 
L 31.776185 17.623055 
" style="fill: none; stroke: #000000; stroke-width: 0.8; stroke-linejoin: miter; stroke-linecap: square"/>
   </g>
   <g id="patch_32">
    <path d="M 833.76 270.677032 
L 833.76 17.623055 
" style="fill: none; stroke: #000000; stroke-width: 0.8; stroke-linejoin: miter; stroke-linecap: square"/>
   </g>
   <g id="patch_33">
    <path d="M 31.776185 270.677032 
L 833.76 270.677032 
" style="fill: none; stroke: #000000; stroke-width: 0.8; stroke-linejoin: miter; stroke-linecap: square"/>
   </g>
   <g id="patch_34">
    <path d="M 31.776185 17.623055 
L 833.76 17.623055 
" style="fill: none; stroke: #000000; stroke-width: 0.8; stroke-linejoin: miter; stroke-linecap: square"/>
   </g>
   <g id="text_18">
    <!-- 0.14 GiB -->
    <g transform="translate(86.010448 209.835626) scale(0.14 -0.14)">
     <defs>
      <path id="CMSS17-30" d="M 2758 2073 
C 2758 2439 2752 3120 2490 3647 
C 2227 4153 1805 4288 1504 4288 
C 1069 4288 698 4031 506 3621 
C 301 3191 243 2748 243 2073 
C 243 1611 262 1046 493 551 
C 755 6 1197 -128 1498 -128 
C 1894 -128 2278 83 2496 525 
C 2720 988 2758 1495 2758 2073 
z
M 1498 262 
C 1011 262 864 821 819 1007 
C 742 1328 730 1636 730 2144 
C 730 2542 730 2992 851 3345 
C 998 3756 1254 3897 1498 3897 
C 1971 3897 2125 3422 2176 3255 
C 2272 2915 2272 2516 2272 2144 
C 2272 1546 2272 262 1498 262 
z
" transform="scale(0.015625)"/>
      <path id="CMSS17-2e" d="M 1088 512 
L 576 512 
L 576 0 
L 1088 0 
L 1088 512 
z
" transform="scale(0.015625)"/>
      <path id="CMSS17-31" d="M 1818 4288 
L 1696 4288 
C 1350 3949 947 3902 538 3891 
L 538 3520 
C 723 3526 1024 3539 1325 3673 
L 1325 371 
L 570 371 
L 570 0 
L 2573 0 
L 2573 371 
L 1818 371 
L 1818 4288 
z
" transform="scale(0.015625)"/>
      <path id="CMSS17-34" d="M 2253 1088 
L 2835 1088 
L 2835 1478 
L 2253 1478 
L 2253 4224 
L 1690 4224 
L 166 1478 
L 166 1088 
L 1747 1088 
L 1747 0 
L 2253 0 
L 2253 1088 
z
M 659 1478 
C 1030 2139 1766 3474 1766 3927 
L 1766 1478 
L 659 1478 
z
" transform="scale(0.015625)"/>
     </defs>
     <use xlink:href="#CMSS17-30" transform="scale(0.996264)"/>
     <use xlink:href="#CMSS17-2e" transform="translate(46.843624 0) scale(0.996264)"/>
     <use xlink:href="#CMSS17-31" transform="translate(72.867828 0) scale(0.996264)"/>
     <use xlink:href="#CMSS17-34" transform="translate(119.711452 0) scale(0.996264)"/>
     <use xlink:href="#CMSS17-47" transform="translate(197.784188 0) scale(0.996264)"/>
     <use xlink:href="#CMSS17-69" transform="translate(260.242414 0) scale(0.996264)"/>
     <use xlink:href="#CMSS17-42" transform="translate(282.423137 0) scale(0.996264)"/>
    </g>
   </g>
   <g id="text_19">
    <!-- 0.16 GiB -->
    <g transform="translate(193.227535 209.119844) scale(0.14 -0.14)">
     <defs>
      <path id="CMSS17-36" d="M 2496 4159 
C 2227 4268 2035 4288 1856 4288 
C 1024 4288 250 3408 250 2023 
C 250 268 986 -128 1510 -128 
C 1798 -128 2086 -39 2362 281 
C 2643 619 2752 900 2752 1392 
C 2752 2183 2362 2886 1779 2886 
C 1357 2886 992 2662 768 2381 
C 832 3290 1254 3897 1862 3897 
C 2029 3897 2246 3871 2496 3760 
L 2496 4159 
z
M 774 1372 
C 774 1423 774 1455 781 1551 
C 781 2049 1069 2496 1536 2496 
C 1837 2496 1990 2336 2106 2138 
C 2240 1889 2246 1653 2246 1392 
C 2246 1143 2246 894 2099 638 
C 1978 441 1818 268 1510 268 
C 902 268 800 1117 774 1372 
z
" transform="scale(0.015625)"/>
     </defs>
     <use xlink:href="#CMSS17-30" transform="scale(0.996264)"/>
     <use xlink:href="#CMSS17-2e" transform="translate(46.843624 0) scale(0.996264)"/>
     <use xlink:href="#CMSS17-31" transform="translate(72.867828 0) scale(0.996264)"/>
     <use xlink:href="#CMSS17-36" transform="translate(119.711452 0) scale(0.996264)"/>
     <use xlink:href="#CMSS17-47" transform="translate(197.784188 0) scale(0.996264)"/>
     <use xlink:href="#CMSS17-69" transform="translate(260.242414 0) scale(0.996264)"/>
     <use xlink:href="#CMSS17-42" transform="translate(282.423137 0) scale(0.996264)"/>
    </g>
   </g>
   <g id="text_20">
    <!-- 0.12 GiB -->
    <g transform="translate(300.444623 210.621357) scale(0.14 -0.14)">
     <defs>
      <path id="CMSS17-32" d="M 1651 1353 
C 1830 1538 2099 1761 2285 1984 
C 2464 2201 2701 2507 2701 2953 
C 2701 3655 2227 4288 1421 4288 
C 787 4288 422 3891 250 3272 
L 499 2928 
C 640 3508 838 3878 1338 3878 
C 1888 3878 2195 3431 2195 2940 
C 2195 2354 1747 1901 1408 1563 
C 1030 1187 659 805 301 409 
L 301 0 
L 2701 0 
L 2701 435 
L 1613 435 
C 1536 435 1459 428 1382 428 
L 742 428 
L 742 435 
L 1651 1353 
z
" transform="scale(0.015625)"/>
     </defs>
     <use xlink:href="#CMSS17-30" transform="scale(0.996264)"/>
     <use xlink:href="#CMSS17-2e" transform="translate(46.843624 0) scale(0.996264)"/>
     <use xlink:href="#CMSS17-31" transform="translate(72.867828 0) scale(0.996264)"/>
     <use xlink:href="#CMSS17-32" transform="translate(119.711452 0) scale(0.996264)"/>
     <use xlink:href="#CMSS17-47" transform="translate(197.784188 0) scale(0.996264)"/>
     <use xlink:href="#CMSS17-69" transform="translate(260.242414 0) scale(0.996264)"/>
     <use xlink:href="#CMSS17-42" transform="translate(282.423137 0) scale(0.996264)"/>
    </g>
   </g>
   <g id="text_21">
    <!-- 0.12 + 4.70 GiB -->
    <g transform="translate(385.658803 40.89652) scale(0.14 -0.14)">
     <defs>
      <path id="CMSS17-2b" d="M 2451 1472 
L 4141 1472 
C 4230 1472 4339 1472 4339 1580 
C 4339 1696 4237 1696 4141 1696 
L 2451 1696 
L 2451 3385 
C 2451 3475 2451 3584 2342 3584 
C 2227 3584 2227 3481 2227 3385 
L 2227 1696 
L 531 1696 
C 442 1696 333 1696 333 1587 
C 333 1472 435 1472 531 1472 
L 2227 1472 
L 2227 -194 
C 2227 -282 2227 -391 2336 -391 
C 2451 -391 2451 -289 2451 -194 
L 2451 1472 
z
" transform="scale(0.015625)"/>
      <path id="CMSS17-37" d="M 1389 3788 
C 1466 3788 1542 3795 1619 3795 
L 2355 3795 
C 1440 2715 915 1350 915 -64 
L 1427 -64 
C 1427 1305 1875 2695 2752 3807 
L 2752 4224 
L 250 4224 
L 250 3788 
L 1389 3788 
z
" transform="scale(0.015625)"/>
     </defs>
     <use xlink:href="#CMSS17-30" transform="scale(0.996264)"/>
     <use xlink:href="#CMSS17-2e" transform="translate(46.843624 0) scale(0.996264)"/>
     <use xlink:href="#CMSS17-31" transform="translate(72.867828 0) scale(0.996264)"/>
     <use xlink:href="#CMSS17-32" transform="translate(119.711452 0) scale(0.996264)"/>
     <use xlink:href="#CMSS17-2b" transform="translate(197.784188 0) scale(0.996264)"/>
     <use xlink:href="#CMSS17-34" transform="translate(301.881236 0) scale(0.996264)"/>
     <use xlink:href="#CMSS17-2e" transform="translate(348.724859 0) scale(0.996264)"/>
     <use xlink:href="#CMSS17-37" transform="translate(374.749064 0) scale(0.996264)"/>
     <use xlink:href="#CMSS17-30" transform="translate(421.592688 0) scale(0.996264)"/>
     <use xlink:href="#CMSS17-47" transform="translate(499.665424 0) scale(0.996264)"/>
     <use xlink:href="#CMSS17-69" transform="translate(562.123649 0) scale(0.996264)"/>
     <use xlink:href="#CMSS17-42" transform="translate(584.304373 0) scale(0.996264)"/>
    </g>
   </g>
   <g id="text_22">
    <!-- 0.08 GiB -->
    <g transform="translate(514.878798 212.137641) scale(0.14 -0.14)">
     <defs>
      <path id="CMSS17-38" d="M 1933 2246 
C 2419 2406 2669 2793 2669 3174 
C 2669 3774 2157 4288 1504 4288 
C 826 4288 333 3755 333 3174 
C 333 2799 576 2412 1069 2246 
C 442 2003 250 1516 250 1152 
C 250 448 819 -128 1498 -128 
C 2202 -128 2752 460 2752 1152 
C 2752 1574 2502 2022 1933 2246 
z
M 1504 2438 
C 1075 2438 787 2728 787 3167 
C 787 3613 1075 3897 1504 3897 
C 1901 3897 2214 3639 2214 3167 
C 2214 2703 1907 2438 1504 2438 
z
M 1504 268 
C 1139 268 749 518 749 1158 
C 749 1817 1184 2048 1498 2048 
C 1843 2048 2253 1804 2253 1158 
C 2253 492 1830 268 1504 268 
z
" transform="scale(0.015625)"/>
     </defs>
     <use xlink:href="#CMSS17-30" transform="scale(0.996264)"/>
     <use xlink:href="#CMSS17-2e" transform="translate(46.843624 0) scale(0.996264)"/>
     <use xlink:href="#CMSS17-30" transform="translate(72.867828 0) scale(0.996264)"/>
     <use xlink:href="#CMSS17-38" transform="translate(119.711452 0) scale(0.996264)"/>
     <use xlink:href="#CMSS17-47" transform="translate(197.784188 0) scale(0.996264)"/>
     <use xlink:href="#CMSS17-69" transform="translate(260.242414 0) scale(0.996264)"/>
     <use xlink:href="#CMSS17-42" transform="translate(282.423137 0) scale(0.996264)"/>
    </g>
   </g>
   <g id="text_23">
    <!-- 0.10 + 1.01  GiB -->
    <g transform="translate(600.092978 174.912815) scale(0.14 -0.14)">
     <use xlink:href="#CMSS17-30" transform="scale(0.996264)"/>
     <use xlink:href="#CMSS17-2e" transform="translate(46.843624 0) scale(0.996264)"/>
     <use xlink:href="#CMSS17-31" transform="translate(72.867828 0) scale(0.996264)"/>
     <use xlink:href="#CMSS17-30" transform="translate(119.711452 0) scale(0.996264)"/>
     <use xlink:href="#CMSS17-2b" transform="translate(197.784188 0) scale(0.996264)"/>
     <use xlink:href="#CMSS17-31" transform="translate(301.881236 0) scale(0.996264)"/>
     <use xlink:href="#CMSS17-2e" transform="translate(348.724859 0) scale(0.996264)"/>
     <use xlink:href="#CMSS17-30" transform="translate(374.749064 0) scale(0.996264)"/>
     <use xlink:href="#CMSS17-31" transform="translate(421.592688 0) scale(0.996264)"/>
     <use xlink:href="#CMSS17-47" transform="translate(499.665424 0) scale(0.996264)"/>
     <use xlink:href="#CMSS17-69" transform="translate(562.123649 0) scale(0.996264)"/>
     <use xlink:href="#CMSS17-42" transform="translate(584.304373 0) scale(0.996264)"/>
    </g>
   </g>
   <g id="text_24">
    <!-- 0.10 GiB -->
    <g transform="translate(729.312973 211.281648) scale(0.14 -0.14)">
     <use xlink:href="#CMSS17-30" transform="scale(0.996264)"/>
     <use xlink:href="#CMSS17-2e" transform="translate(46.843624 0) scale(0.996264)"/>
     <use xlink:href="#CMSS17-31" transform="translate(72.867828 0) scale(0.996264)"/>
     <use xlink:href="#CMSS17-30" transform="translate(119.711452 0) scale(0.996264)"/>
     <use xlink:href="#CMSS17-47" transform="translate(197.784188 0) scale(0.996264)"/>
     <use xlink:href="#CMSS17-69" transform="translate(260.242414 0) scale(0.996264)"/>
     <use xlink:href="#CMSS17-42" transform="translate(282.423137 0) scale(0.996264)"/>
    </g>
   </g>
   <g id="text_25">
    <!-- Peak Heap Usage Comparison -->
    <g transform="translate(330.291494 11.623055) scale(0.168 -0.168)">
     <use xlink:href="#CMSS17-50" transform="scale(0.996264)"/>
     <use xlink:href="#CMSS17-65" transform="translate(57.133132 0) scale(0.996264)"/>
     <use xlink:href="#CMSS17-61" transform="translate(98.771954 0) scale(0.996264)"/>
     <use xlink:href="#CMSS17-6b" transform="translate(143.693875 0) scale(0.996264)"/>
     <use xlink:href="#CMSS17-48" transform="translate(220.525477 0) scale(0.996264)"/>
     <use xlink:href="#CMSS17-65" transform="translate(286.586996 0) scale(0.996264)"/>
     <use xlink:href="#CMSS17-61" transform="translate(328.225818 0) scale(0.996264)"/>
     <use xlink:href="#CMSS17-70" transform="translate(373.147739 0) scale(0.996264)"/>
     <use xlink:href="#CMSS17-55" transform="translate(452.581795 0) scale(0.996264)"/>
     <use xlink:href="#CMSS17-73" transform="translate(516.721535 0) scale(0.996264)"/>
     <use xlink:href="#CMSS17-61" transform="translate(552.635077 0) scale(0.996264)"/>
     <use xlink:href="#CMSS17-67" transform="translate(597.556998 0) scale(0.996264)"/>
     <use xlink:href="#CMSS17-65" transform="translate(644.400621 0) scale(0.996264)"/>
     <use xlink:href="#CMSS17-43" transform="translate(717.268556 0) scale(0.996264)"/>
     <use xlink:href="#CMSS17-6f" transform="translate(777.124327 0) scale(0.996264)"/>
     <use xlink:href="#CMSS17-6d" transform="translate(823.967951 0) scale(0.996264)"/>
     <use xlink:href="#CMSS17-70" transform="translate(898.197205 0) scale(0.996264)"/>
     <use xlink:href="#CMSS17-61" transform="translate(946.402149 0) scale(0.996264)"/>
     <use xlink:href="#CMSS17-72" transform="translate(988.721615 0) scale(0.996264)"/>
     <use xlink:href="#CMSS17-69" transform="translate(1020.631388 0) scale(0.996264)"/>
     <use xlink:href="#CMSS17-73" transform="translate(1042.812111 0) scale(0.996264)"/>
     <use xlink:href="#CMSS17-6f" transform="translate(1078.725653 0) scale(0.996264)"/>
     <use xlink:href="#CMSS17-6e" transform="translate(1125.569276 0) scale(0.996264)"/>
    </g>
   </g>
   <g id="legend_1">
    <g id="patch_35">
     <path d="M 570.555502 111.178172 
L 823.96 111.178172 
Q 826.76 111.178172 826.76 108.378172 
L 826.76 27.423055 
Q 826.76 24.623055 823.96 24.623055 
L 570.555502 24.623055 
Q 567.755502 24.623055 567.755502 27.423055 
L 567.755502 108.378172 
Q 567.755502 111.178172 570.555502 111.178172 
z
" style="fill: #ffffff; opacity: 0.8; stroke: #cccccc; stroke-linejoin: miter"/>
    </g>
    <g id="patch_36">
     <path d="M 573.355502 40.023055 
L 601.355502 40.023055 
L 601.355502 30.223055 
L 573.355502 30.223055 
z
" style="fill: #1f77b4"/>
    </g>
    <g id="text_26">
     <!-- Additional heap memory -->
     <g transform="translate(612.555502 40.023055) scale(0.14 -0.14)">
      <defs>
       <path id="CMSS17-68" d="M 2618 1878 
C 2618 2283 2522 2816 1798 2816 
C 1395 2816 1133 2617 947 2399 
L 947 4416 
L 474 4416 
L 474 0 
L 960 0 
L 960 1556 
C 960 1962 1114 2425 1549 2425 
C 2112 2425 2131 2045 2131 1826 
L 2131 0 
L 2618 0 
L 2618 1878 
z
" transform="scale(0.015625)"/>
      </defs>
      <use xlink:href="#CMSS17-41" transform="scale(0.996264)"/>
      <use xlink:href="#CMSS17-64" transform="translate(62.217855 0) scale(0.996264)"/>
      <use xlink:href="#CMSS17-64" transform="translate(110.422798 0) scale(0.996264)"/>
      <use xlink:href="#CMSS17-69" transform="translate(158.627741 0) scale(0.996264)"/>
      <use xlink:href="#CMSS17-74" transform="translate(180.808464 0) scale(0.996264)"/>
      <use xlink:href="#CMSS17-69" transform="translate(214.640031 0) scale(0.996264)"/>
      <use xlink:href="#CMSS17-6f" transform="translate(236.820754 0) scale(0.996264)"/>
      <use xlink:href="#CMSS17-6e" transform="translate(283.664377 0) scale(0.996264)"/>
      <use xlink:href="#CMSS17-61" transform="translate(331.869321 0) scale(0.996264)"/>
      <use xlink:href="#CMSS17-6c" transform="translate(376.791241 0) scale(0.996264)"/>
      <use xlink:href="#CMSS17-68" transform="translate(430.201077 0) scale(0.996264)"/>
      <use xlink:href="#CMSS17-65" transform="translate(478.40602 0) scale(0.996264)"/>
      <use xlink:href="#CMSS17-61" transform="translate(520.044842 0) scale(0.996264)"/>
      <use xlink:href="#CMSS17-70" transform="translate(564.966763 0) scale(0.996264)"/>
      <use xlink:href="#CMSS17-6d" transform="translate(644.400819 0) scale(0.996264)"/>
      <use xlink:href="#CMSS17-65" transform="translate(718.630073 0) scale(0.996264)"/>
      <use xlink:href="#CMSS17-6d" transform="translate(760.268895 0) scale(0.996264)"/>
      <use xlink:href="#CMSS17-6f" transform="translate(834.49815 0) scale(0.996264)"/>
      <use xlink:href="#CMSS17-72" transform="translate(878.739319 0) scale(0.996264)"/>
      <use xlink:href="#CMSS17-79" transform="translate(910.649092 0) scale(0.996264)"/>
     </g>
    </g>
    <g id="line2d_17">
     <path d="M 573.355502 55.295855 
L 587.355502 55.295855 
L 601.355502 55.295855 
" style="fill: none; stroke-dasharray: 5.55,2.4; stroke-dashoffset: 0; stroke: #000000; stroke-width: 1.5"/>
    </g>
    <g id="text_27">
     <!-- Min. slotted pages (1.46 GiB) -->
     <g transform="translate(612.555502 60.195855) scale(0.14 -0.14)">
      <use xlink:href="#CMSS17-4d" transform="scale(0.996264)"/>
      <use xlink:href="#CMSS17-69" transform="translate(81.67603 0) scale(0.996264)"/>
      <use xlink:href="#CMSS17-6e" transform="translate(103.856753 0) scale(0.996264)"/>
      <use xlink:href="#CMSS17-2e" transform="translate(152.061696 0) scale(0.996264)"/>
      <use xlink:href="#CMSS17-73" transform="translate(219.724708 0) scale(0.996264)"/>
      <use xlink:href="#CMSS17-6c" transform="translate(255.63825 0) scale(0.996264)"/>
      <use xlink:href="#CMSS17-6f" transform="translate(277.818973 0) scale(0.996264)"/>
      <use xlink:href="#CMSS17-74" transform="translate(324.662596 0) scale(0.996264)"/>
      <use xlink:href="#CMSS17-74" transform="translate(358.494163 0) scale(0.996264)"/>
      <use xlink:href="#CMSS17-65" transform="translate(392.32573 0) scale(0.996264)"/>
      <use xlink:href="#CMSS17-64" transform="translate(433.964552 0) scale(0.996264)"/>
      <use xlink:href="#CMSS17-70" transform="translate(513.398608 0) scale(0.996264)"/>
      <use xlink:href="#CMSS17-61" transform="translate(561.603551 0) scale(0.996264)"/>
      <use xlink:href="#CMSS17-67" transform="translate(606.525471 0) scale(0.996264)"/>
      <use xlink:href="#CMSS17-65" transform="translate(653.369095 0) scale(0.996264)"/>
      <use xlink:href="#CMSS17-73" transform="translate(695.007917 0) scale(0.996264)"/>
      <use xlink:href="#CMSS17-28" transform="translate(762.150572 0) scale(0.996264)"/>
      <use xlink:href="#CMSS17-31" transform="translate(798.584486 0) scale(0.996264)"/>
      <use xlink:href="#CMSS17-2e" transform="translate(845.42811 0) scale(0.996264)"/>
      <use xlink:href="#CMSS17-34" transform="translate(871.452314 0) scale(0.996264)"/>
      <use xlink:href="#CMSS17-36" transform="translate(918.295938 0) scale(0.996264)"/>
      <use xlink:href="#CMSS17-47" transform="translate(996.368674 0) scale(0.996264)"/>
      <use xlink:href="#CMSS17-69" transform="translate(1058.8269 0) scale(0.996264)"/>
      <use xlink:href="#CMSS17-42" transform="translate(1081.007623 0) scale(0.996264)"/>
      <use xlink:href="#CMSS17-29" transform="translate(1143.345663 0) scale(0.996264)"/>
     </g>
    </g>
    <g id="patch_37">
     <path d="M 573.355502 81.143551 
L 601.355502 81.143551 
L 601.355502 71.343551 
L 573.355502 71.343551 
z
" style="fill: #ff7f0e"/>
    </g>
    <g id="text_28">
     <!-- Radix Materialization (1.01 GiB) -->
     <g transform="translate(612.555502 81.143551) scale(0.14 -0.14)">
      <defs>
       <path id="CMSS17-7a" d="M 2400 2502 
L 2400 2752 
L 250 2752 
L 250 2367 
L 1069 2367 
C 1146 2367 1222 2374 1299 2374 
L 1747 2374 
L 166 262 
L 166 0 
L 2419 0 
L 2419 396 
L 1549 396 
C 1472 396 1395 390 1318 390 
L 826 390 
L 2400 2502 
z
" transform="scale(0.015625)"/>
      </defs>
      <use xlink:href="#CMSS17-52" transform="scale(0.996264)"/>
      <use xlink:href="#CMSS17-61" transform="translate(60.416155 0) scale(0.996264)"/>
      <use xlink:href="#CMSS17-64" transform="translate(105.338075 0) scale(0.996264)"/>
      <use xlink:href="#CMSS17-69" transform="translate(153.543019 0) scale(0.996264)"/>
      <use xlink:href="#CMSS17-78" transform="translate(175.723742 0) scale(0.996264)"/>
      <use xlink:href="#CMSS17-4d" transform="translate(249.952996 0) scale(0.996264)"/>
      <use xlink:href="#CMSS17-61" transform="translate(331.629026 0) scale(0.996264)"/>
      <use xlink:href="#CMSS17-74" transform="translate(376.550947 0) scale(0.996264)"/>
      <use xlink:href="#CMSS17-65" transform="translate(410.382513 0) scale(0.996264)"/>
      <use xlink:href="#CMSS17-72" transform="translate(452.021335 0) scale(0.996264)"/>
      <use xlink:href="#CMSS17-69" transform="translate(483.931108 0) scale(0.996264)"/>
      <use xlink:href="#CMSS17-61" transform="translate(506.111831 0) scale(0.996264)"/>
      <use xlink:href="#CMSS17-6c" transform="translate(551.033752 0) scale(0.996264)"/>
      <use xlink:href="#CMSS17-69" transform="translate(573.214475 0) scale(0.996264)"/>
      <use xlink:href="#CMSS17-7a" transform="translate(595.395198 0) scale(0.996264)"/>
      <use xlink:href="#CMSS17-61" transform="translate(636.073069 0) scale(0.996264)"/>
      <use xlink:href="#CMSS17-74" transform="translate(680.99499 0) scale(0.996264)"/>
      <use xlink:href="#CMSS17-69" transform="translate(714.826557 0) scale(0.996264)"/>
      <use xlink:href="#CMSS17-6f" transform="translate(737.00728 0) scale(0.996264)"/>
      <use xlink:href="#CMSS17-6e" transform="translate(783.850903 0) scale(0.996264)"/>
      <use xlink:href="#CMSS17-28" transform="translate(863.284959 0) scale(0.996264)"/>
      <use xlink:href="#CMSS17-31" transform="translate(899.718873 0) scale(0.996264)"/>
      <use xlink:href="#CMSS17-2e" transform="translate(946.562497 0) scale(0.996264)"/>
      <use xlink:href="#CMSS17-30" transform="translate(972.586702 0) scale(0.996264)"/>
      <use xlink:href="#CMSS17-31" transform="translate(1019.430325 0) scale(0.996264)"/>
      <use xlink:href="#CMSS17-47" transform="translate(1097.503062 0) scale(0.996264)"/>
      <use xlink:href="#CMSS17-69" transform="translate(1159.961287 0) scale(0.996264)"/>
      <use xlink:href="#CMSS17-42" transform="translate(1182.14201 0) scale(0.996264)"/>
      <use xlink:href="#CMSS17-29" transform="translate(1244.48005 0) scale(0.996264)"/>
     </g>
    </g>
    <g id="patch_38">
     <path d="M 573.355502 102.091248 
L 601.355502 102.091248 
L 601.355502 92.291248 
L 573.355502 92.291248 
z
" style="fill: #9467bd"/>
    </g>
    <g id="text_29">
     <!-- Temporary Slotted Pages (4.70 GiB) -->
     <g transform="translate(612.555502 102.091248) scale(0.14 -0.14)">
      <defs>
       <path id="CMSS17-54" d="M 2317 3987 
L 2848 3987 
C 2925 3987 3002 3980 3078 3980 
L 3878 3980 
L 3878 4396 
L 218 4396 
L 218 3980 
L 1018 3980 
C 1094 3980 1171 3987 1248 3987 
L 1779 3987 
L 1779 0 
L 2317 0 
L 2317 3987 
z
" transform="scale(0.015625)"/>
      </defs>
      <use xlink:href="#CMSS17-54" transform="scale(0.996264)"/>
      <use xlink:href="#CMSS17-65" transform="translate(56.012199 0) scale(0.996264)"/>
      <use xlink:href="#CMSS17-6d" transform="translate(97.651021 0) scale(0.996264)"/>
      <use xlink:href="#CMSS17-70" transform="translate(171.880275 0) scale(0.996264)"/>
      <use xlink:href="#CMSS17-6f" transform="translate(222.687657 0) scale(0.996264)"/>
      <use xlink:href="#CMSS17-72" transform="translate(266.928826 0) scale(0.996264)"/>
      <use xlink:href="#CMSS17-61" transform="translate(298.838599 0) scale(0.996264)"/>
      <use xlink:href="#CMSS17-72" transform="translate(341.158066 0) scale(0.996264)"/>
      <use xlink:href="#CMSS17-79" transform="translate(373.067838 0) scale(0.996264)"/>
      <use xlink:href="#CMSS17-53" transform="translate(447.297093 0) scale(0.996264)"/>
      <use xlink:href="#CMSS17-6c" transform="translate(499.345609 0) scale(0.996264)"/>
      <use xlink:href="#CMSS17-6f" transform="translate(521.526332 0) scale(0.996264)"/>
      <use xlink:href="#CMSS17-74" transform="translate(568.369955 0) scale(0.996264)"/>
      <use xlink:href="#CMSS17-74" transform="translate(602.201522 0) scale(0.996264)"/>
      <use xlink:href="#CMSS17-65" transform="translate(636.033089 0) scale(0.996264)"/>
      <use xlink:href="#CMSS17-64" transform="translate(677.671911 0) scale(0.996264)"/>
      <use xlink:href="#CMSS17-50" transform="translate(757.105967 0) scale(0.996264)"/>
      <use xlink:href="#CMSS17-61" transform="translate(814.239099 0) scale(0.996264)"/>
      <use xlink:href="#CMSS17-67" transform="translate(859.16102 0) scale(0.996264)"/>
      <use xlink:href="#CMSS17-65" transform="translate(906.004643 0) scale(0.996264)"/>
      <use xlink:href="#CMSS17-73" transform="translate(947.643465 0) scale(0.996264)"/>
      <use xlink:href="#CMSS17-28" transform="translate(1014.78612 0) scale(0.996264)"/>
      <use xlink:href="#CMSS17-34" transform="translate(1051.220034 0) scale(0.996264)"/>
      <use xlink:href="#CMSS17-2e" transform="translate(1098.063658 0) scale(0.996264)"/>
      <use xlink:href="#CMSS17-37" transform="translate(1124.087863 0) scale(0.996264)"/>
      <use xlink:href="#CMSS17-30" transform="translate(1170.931486 0) scale(0.996264)"/>
      <use xlink:href="#CMSS17-47" transform="translate(1249.004222 0) scale(0.996264)"/>
      <use xlink:href="#CMSS17-69" transform="translate(1311.462448 0) scale(0.996264)"/>
      <use xlink:href="#CMSS17-42" transform="translate(1333.643171 0) scale(0.996264)"/>
      <use xlink:href="#CMSS17-29" transform="translate(1395.981211 0) scale(0.996264)"/>
     </g>
    </g>
   </g>
  </g>
 </g>
 <defs>
  <clipPath id="p74c3eef5d6">
   <rect x="31.776185" y="17.623055" width="801.983815" height="253.053977"/>
  </clipPath>
 </defs>
</svg>
