<?xml version="1.0" encoding="utf-8" standalone="no"?>
<!DOCTYPE svg PUBLIC "-//W3C//DTD SVG 1.1//EN"
  "http://www.w3.org/Graphics/SVG/1.1/DTD/svg11.dtd">
<svg xmlns:xlink="http://www.w3.org/1999/xlink" width="487.248487pt" height="330.618864pt" viewBox="0 0 487.248487 330.618864" xmlns="http://www.w3.org/2000/svg" version="1.1">
 <metadata>
  <rdf:RDF xmlns:dc="http://purl.org/dc/elements/1.1/" xmlns:cc="http://creativecommons.org/ns#" xmlns:rdf="http://www.w3.org/1999/02/22-rdf-syntax-ns#">
   <cc:Work>
    <dc:type rdf:resource="http://purl.org/dc/dcmitype/StillImage"/>
    <dc:date>2025-03-29T11:42:57.122872</dc:date>
    <dc:format>image/svg+xml</dc:format>
    <dc:creator>
     <cc:Agent>
      <dc:title>Matplotlib v3.10.1, https://matplotlib.org/</dc:title>
     </cc:Agent>
    </dc:creator>
   </cc:Work>
  </rdf:RDF>
 </metadata>
 <defs>
  <style type="text/css">*{stroke-linejoin: round; stroke-linecap: butt}</style>
 </defs>
 <g id="figure_1">
  <g id="patch_1">
   <path d="M 0 330.618864 
L 487.248487 330.618864 
L 487.248487 0 
L 0 0 
z
" style="fill: #ffffff"/>
  </g>
  <g id="axes_1">
   <g id="patch_2">
    <path d="M 40.848487 294.823055 
L 487.248487 294.823055 
L 487.248487 17.623055 
L 40.848487 17.623055 
z
" style="fill: #ffffff"/>
   </g>
   <g id="matplotlib.axis_1">
    <g id="xtick_1">
     <g id="line2d_1">
      <path d="M 61.139396 294.823055 
L 61.139396 17.623055 
" clip-path="url(#p29e570f156)" style="fill: none; stroke-dasharray: 1.85,0.8; stroke-dashoffset: 0; stroke: #808080; stroke-width: 0.5"/>
     </g>
     <g id="line2d_2">
      <defs>
       <path id="m8409e49464" d="M 0 0 
L 0 3.5 
" style="stroke: #000000; stroke-width: 0.8"/>
      </defs>
      <g>
       <use xlink:href="#m8409e49464" x="61.139396" y="294.823055" style="stroke: #000000; stroke-width: 0.8"/>
      </g>
     </g>
     <g id="text_1">
      <!-- $\mathdefault{1}$ -->
      <g transform="translate(57.725152 311.508931) scale(0.14 -0.14)">
       <defs>
        <path id="CMR17-31" d="M 1702 4058 
C 1702 4192 1696 4192 1606 4192 
C 1357 3916 979 3827 621 3827 
C 602 3827 570 3827 563 3808 
C 557 3795 557 3782 557 3648 
C 755 3648 1088 3686 1344 3839 
L 1344 461 
C 1344 236 1331 160 781 160 
L 589 160 
L 589 0 
C 896 0 1216 0 1523 0 
C 1830 0 2150 0 2458 0 
L 2458 160 
L 2266 160 
C 1715 160 1702 230 1702 458 
L 1702 4058 
z
" transform="scale(0.015625)"/>
       </defs>
       <use xlink:href="#CMR17-31" transform="scale(0.996264)"/>
      </g>
     </g>
    </g>
    <g id="xtick_2">
     <g id="line2d_3">
      <path d="M 82.498248 294.823055 
L 82.498248 17.623055 
" clip-path="url(#p29e570f156)" style="fill: none; stroke-dasharray: 1.85,0.8; stroke-dashoffset: 0; stroke: #808080; stroke-width: 0.5"/>
     </g>
     <g id="line2d_4">
      <g>
       <use xlink:href="#m8409e49464" x="82.498248" y="294.823055" style="stroke: #000000; stroke-width: 0.8"/>
      </g>
     </g>
     <g id="text_2">
      <!-- $\mathdefault{2}$ -->
      <g transform="translate(79.084003 311.508931) scale(0.14 -0.14)">
       <defs>
        <path id="CMR17-32" d="M 2669 989 
L 2554 989 
C 2490 536 2438 459 2413 420 
C 2381 369 1920 369 1830 369 
L 602 369 
C 832 619 1280 1072 1824 1597 
C 2214 1967 2669 2402 2669 3035 
C 2669 3790 2067 4224 1395 4224 
C 691 4224 262 3604 262 3030 
C 262 2780 448 2748 525 2748 
C 589 2748 781 2787 781 3010 
C 781 3207 614 3264 525 3264 
C 486 3264 448 3258 422 3245 
C 544 3790 915 4058 1306 4058 
C 1862 4058 2227 3617 2227 3035 
C 2227 2479 1901 2000 1536 1584 
L 262 146 
L 262 0 
L 2515 0 
L 2669 989 
z
" transform="scale(0.015625)"/>
       </defs>
       <use xlink:href="#CMR17-32" transform="scale(0.996264)"/>
      </g>
     </g>
    </g>
    <g id="xtick_3">
     <g id="line2d_5">
      <path d="M 125.215951 294.823055 
L 125.215951 17.623055 
" clip-path="url(#p29e570f156)" style="fill: none; stroke-dasharray: 1.85,0.8; stroke-dashoffset: 0; stroke: #808080; stroke-width: 0.5"/>
     </g>
     <g id="line2d_6">
      <g>
       <use xlink:href="#m8409e49464" x="125.215951" y="294.823055" style="stroke: #000000; stroke-width: 0.8"/>
      </g>
     </g>
     <g id="text_3">
      <!-- $\mathdefault{4}$ -->
      <g transform="translate(121.801707 311.508931) scale(0.14 -0.14)">
       <defs>
        <path id="CMR17-34" d="M 2150 4122 
C 2150 4256 2144 4256 2029 4256 
L 128 1254 
L 128 1088 
L 1779 1088 
L 1779 457 
C 1779 224 1766 160 1318 160 
L 1197 160 
L 1197 0 
C 1402 0 1747 0 1965 0 
C 2182 0 2528 0 2733 0 
L 2733 160 
L 2611 160 
C 2163 160 2150 224 2150 457 
L 2150 1088 
L 2803 1088 
L 2803 1254 
L 2150 1254 
L 2150 4122 
z
M 1798 3703 
L 1798 1254 
L 256 1254 
L 1798 3703 
z
" transform="scale(0.015625)"/>
       </defs>
       <use xlink:href="#CMR17-34" transform="scale(0.996264)"/>
      </g>
     </g>
    </g>
    <g id="xtick_4">
     <g id="line2d_7">
      <path d="M 210.651358 294.823055 
L 210.651358 17.623055 
" clip-path="url(#p29e570f156)" style="fill: none; stroke-dasharray: 1.85,0.8; stroke-dashoffset: 0; stroke: #808080; stroke-width: 0.5"/>
     </g>
     <g id="line2d_8">
      <g>
       <use xlink:href="#m8409e49464" x="210.651358" y="294.823055" style="stroke: #000000; stroke-width: 0.8"/>
      </g>
     </g>
     <g id="text_4">
      <!-- $\mathdefault{8}$ -->
      <g transform="translate(207.237113 311.508931) scale(0.14 -0.14)">
       <defs>
        <path id="CMR17-38" d="M 1741 2264 
C 2144 2467 2554 2773 2554 3263 
C 2554 3841 1990 4179 1472 4179 
C 890 4179 378 3759 378 3180 
C 378 3021 416 2747 666 2505 
C 730 2442 998 2251 1171 2130 
C 883 1983 211 1634 211 934 
C 211 279 838 -128 1459 -128 
C 2144 -128 2720 362 2720 1010 
C 2720 1590 2330 1857 2074 2029 
L 1741 2264 
z
M 902 2822 
C 851 2854 595 3051 595 3351 
C 595 3739 998 4032 1459 4032 
C 1965 4032 2336 3676 2336 3262 
C 2336 2669 1670 2331 1638 2331 
C 1632 2331 1626 2331 1574 2370 
L 902 2822 
z
M 2080 1519 
C 2176 1449 2483 1240 2483 851 
C 2483 381 2010 25 1472 25 
C 890 25 448 438 448 940 
C 448 1443 838 1862 1280 2060 
L 2080 1519 
z
" transform="scale(0.015625)"/>
       </defs>
       <use xlink:href="#CMR17-38" transform="scale(0.996264)"/>
      </g>
     </g>
    </g>
    <g id="xtick_5">
     <g id="line2d_9">
      <path d="M 253.369061 294.823055 
L 253.369061 17.623055 
" clip-path="url(#p29e570f156)" style="fill: none; stroke-dasharray: 1.85,0.8; stroke-dashoffset: 0; stroke: #808080; stroke-width: 0.5"/>
     </g>
     <g id="line2d_10">
      <g>
       <use xlink:href="#m8409e49464" x="253.369061" y="294.823055" style="stroke: #000000; stroke-width: 0.8"/>
      </g>
     </g>
     <g id="text_5">
      <!-- $\mathdefault{10}$ -->
      <g transform="translate(246.540572 311.508931) scale(0.14 -0.14)">
       <defs>
        <path id="CMR17-30" d="M 2688 2025 
C 2688 2416 2682 3080 2413 3591 
C 2176 4039 1798 4198 1466 4198 
C 1158 4198 768 4058 525 3597 
C 269 3118 243 2524 243 2025 
C 243 1661 250 1106 448 619 
C 723 -39 1216 -128 1466 -128 
C 1760 -128 2208 -7 2470 600 
C 2662 1042 2688 1559 2688 2025 
z
M 1466 -26 
C 1056 -26 813 325 723 812 
C 653 1188 653 1738 653 2096 
C 653 2588 653 2997 736 3387 
C 858 3929 1216 4096 1466 4096 
C 1728 4096 2067 3923 2189 3400 
C 2272 3036 2278 2607 2278 2096 
C 2278 1680 2278 1169 2202 792 
C 2067 95 1690 -26 1466 -26 
z
" transform="scale(0.015625)"/>
       </defs>
       <use xlink:href="#CMR17-31" transform="scale(0.996264)"/>
       <use xlink:href="#CMR17-30" transform="translate(45.690477 0) scale(0.996264)"/>
      </g>
     </g>
    </g>
    <g id="xtick_6">
     <g id="line2d_11">
      <path d="M 466.957578 294.823055 
L 466.957578 17.623055 
" clip-path="url(#p29e570f156)" style="fill: none; stroke-dasharray: 1.85,0.8; stroke-dashoffset: 0; stroke: #808080; stroke-width: 0.5"/>
     </g>
     <g id="line2d_12">
      <g>
       <use xlink:href="#m8409e49464" x="466.957578" y="294.823055" style="stroke: #000000; stroke-width: 0.8"/>
      </g>
     </g>
     <g id="text_6">
      <!-- $\mathdefault{20}$ -->
      <g transform="translate(460.129089 311.508931) scale(0.14 -0.14)">
       <use xlink:href="#CMR17-32" transform="scale(0.996264)"/>
       <use xlink:href="#CMR17-30" transform="translate(45.690477 0) scale(0.996264)"/>
      </g>
     </g>
    </g>
    <g id="text_7">
     <!-- Threads -->
     <g transform="translate(241.143216 327.906836) scale(0.14 -0.14)">
      <defs>
       <path id="CMSS17-54" d="M 2317 3968 
L 2848 3968 
C 2925 3968 3002 3968 3078 3968 
L 3878 3968 
L 3878 4376 
L 218 4376 
L 218 3968 
L 1018 3968 
C 1094 3968 1171 3968 1248 3968 
L 1779 3968 
L 1779 -32 
L 2317 -32 
L 2317 3968 
z
" transform="scale(0.015625)"/>
       <path id="CMSS17-68" d="M 2618 1891 
C 2618 2292 2522 2820 1798 2820 
C 1395 2820 1133 2623 947 2407 
L 947 4448 
L 474 4448 
L 474 32 
L 960 32 
L 960 1573 
C 960 1973 1114 2432 1549 2432 
C 2112 2432 2131 2056 2131 1839 
L 2131 32 
L 2618 32 
L 2618 1891 
z
" transform="scale(0.015625)"/>
       <path id="CMSS17-72" d="M 954 1363 
C 954 1965 1395 2368 1958 2368 
L 1958 2789 
C 1549 2789 1165 2585 934 2253 
L 934 2758 
L 480 2758 
L 480 0 
L 954 0 
L 954 1363 
z
" transform="scale(0.015625)"/>
       <path id="CMSS17-65" d="M 2502 1377 
C 2502 1590 2490 2003 2285 2345 
C 2061 2713 1696 2816 1421 2816 
C 755 2816 192 2188 192 1375 
C 192 582 774 -64 1510 -64 
C 1798 -64 2150 19 2470 248 
C 2470 274 2458 414 2451 420 
C 2451 433 2432 630 2432 656 
C 2125 407 1773 325 1517 325 
C 1107 325 666 667 646 1377 
L 2502 1377 
z
M 698 1728 
C 781 2084 1062 2421 1421 2421 
C 1517 2421 1965 2421 2080 1728 
L 698 1728 
z
" transform="scale(0.015625)"/>
       <path id="CMSS17-61" d="M 2406 1791 
C 2406 2392 1978 2808 1402 2808 
C 1120 2808 813 2757 461 2553 
L 499 2135 
C 659 2248 934 2432 1395 2432 
C 1722 2432 1920 2180 1920 1782 
L 1920 1536 
C 896 1536 256 1238 256 726 
C 256 461 416 -64 947 -64 
C 1043 -64 1562 -64 1933 217 
L 1933 -19 
L 2406 -19 
L 2406 1791 
z
M 1920 816 
C 1920 701 1920 548 1728 434 
C 1562 325 1350 325 1261 325 
C 941 325 723 511 723 744 
C 723 1211 1722 1211 1920 1211 
L 1920 816 
z
" transform="scale(0.015625)"/>
       <path id="CMSS17-64" d="M 2611 4416 
L 2138 4416 
L 2138 2438 
C 1939 2603 1613 2756 1254 2756 
C 672 2756 211 2131 211 1347 
C 211 562 666 -64 1235 -64 
C 1677 -64 1971 172 2125 306 
L 2125 -13 
L 2611 -13 
L 2611 4416 
z
M 2125 836 
C 2125 747 2125 653 1926 482 
C 1798 375 1645 325 1498 325 
C 1152 325 698 576 698 1340 
C 698 2134 1210 2368 1562 2368 
C 1798 2368 1990 2254 2125 2065 
L 2125 836 
z
" transform="scale(0.015625)"/>
       <path id="CMSS17-73" d="M 2061 2627 
C 1683 2807 1389 2807 1197 2807 
C 742 2807 198 2648 198 2003 
C 198 1359 902 1218 1094 1179 
C 1389 1122 1715 1058 1715 740 
C 1715 337 1254 337 1171 337 
C 915 337 563 407 243 638 
L 166 210 
C 531 0 883 -64 1178 -64 
C 1965 -64 2163 416 2163 781 
C 2163 1094 1984 1305 1862 1401 
C 1651 1568 1574 1587 1050 1696 
C 960 1709 646 1779 646 2066 
C 646 2432 1050 2432 1139 2432 
C 1555 2432 1811 2303 1984 2208 
L 2061 2627 
z
" transform="scale(0.015625)"/>
      </defs>
      <use xlink:href="#CMSS17-54" transform="scale(0.996264)"/>
      <use xlink:href="#CMSS17-68" transform="translate(63.819454 0) scale(0.996264)"/>
      <use xlink:href="#CMSS17-72" transform="translate(112.024397 0) scale(0.996264)"/>
      <use xlink:href="#CMSS17-65" transform="translate(143.93417 0) scale(0.996264)"/>
      <use xlink:href="#CMSS17-61" transform="translate(185.572992 0) scale(0.996264)"/>
      <use xlink:href="#CMSS17-64" transform="translate(230.494912 0) scale(0.996264)"/>
      <use xlink:href="#CMSS17-73" transform="translate(278.699855 0) scale(0.996264)"/>
     </g>
    </g>
   </g>
   <g id="matplotlib.axis_2">
    <g id="ytick_1">
     <g id="line2d_13">
      <path d="M 40.848487 287.098734 
L 487.248487 287.098734 
" clip-path="url(#p29e570f156)" style="fill: none; stroke-dasharray: 1.85,0.8; stroke-dashoffset: 0; stroke: #808080; stroke-width: 0.5"/>
     </g>
     <g id="line2d_14">
      <defs>
       <path id="m3f60b30d58" d="M 0 0 
L -3.5 0 
" style="stroke: #000000; stroke-width: 0.8"/>
      </defs>
      <g>
       <use xlink:href="#m3f60b30d58" x="40.848487" y="287.098734" style="stroke: #000000; stroke-width: 0.8"/>
      </g>
     </g>
     <g id="text_8">
      <!-- $\mathdefault{0.0}$ -->
      <g transform="translate(16.397905 291.941673) scale(0.14 -0.14)">
       <defs>
        <path id="CMMI12-3a" d="M 1178 307 
C 1178 492 1024 619 870 619 
C 685 619 557 466 557 313 
C 557 128 710 0 864 0 
C 1050 0 1178 153 1178 307 
z
" transform="scale(0.015625)"/>
       </defs>
       <use xlink:href="#CMR17-30" transform="scale(0.996264)"/>
       <use xlink:href="#CMMI12-3a" transform="translate(45.690477 0) scale(0.996264)"/>
       <use xlink:href="#CMR17-30" transform="translate(72.787654 0) scale(0.996264)"/>
      </g>
     </g>
    </g>
    <g id="ytick_2">
     <g id="line2d_15">
      <path d="M 40.848487 255.691232 
L 487.248487 255.691232 
" clip-path="url(#p29e570f156)" style="fill: none; stroke-dasharray: 1.85,0.8; stroke-dashoffset: 0; stroke: #808080; stroke-width: 0.5"/>
     </g>
     <g id="line2d_16">
      <g>
       <use xlink:href="#m3f60b30d58" x="40.848487" y="255.691232" style="stroke: #000000; stroke-width: 0.8"/>
      </g>
     </g>
     <g id="text_9">
      <!-- $\mathdefault{0.5}$ -->
      <g transform="translate(16.397905 260.53417) scale(0.14 -0.14)">
       <defs>
        <path id="CMR17-35" d="M 730 3692 
C 794 3666 1056 3584 1325 3584 
C 1920 3584 2246 3911 2432 4100 
C 2432 4157 2432 4192 2394 4192 
C 2387 4192 2374 4192 2323 4163 
C 2099 4058 1837 3973 1517 3973 
C 1325 3973 1037 3999 723 4139 
C 653 4171 640 4171 634 4171 
C 602 4171 595 4164 595 4037 
L 595 2203 
C 595 2089 595 2057 659 2057 
C 691 2057 704 2070 736 2114 
C 941 2401 1222 2522 1542 2522 
C 1766 2522 2246 2382 2246 1289 
C 2246 1085 2246 715 2054 421 
C 1894 159 1645 25 1370 25 
C 947 25 518 320 403 814 
C 429 807 480 795 506 795 
C 589 795 749 840 749 1038 
C 749 1210 627 1280 506 1280 
C 358 1280 262 1190 262 1011 
C 262 454 704 -128 1382 -128 
C 2042 -128 2669 440 2669 1264 
C 2669 2030 2170 2624 1549 2624 
C 1222 2624 947 2503 730 2274 
L 730 3692 
z
" transform="scale(0.015625)"/>
       </defs>
       <use xlink:href="#CMR17-30" transform="scale(0.996264)"/>
       <use xlink:href="#CMMI12-3a" transform="translate(45.690477 0) scale(0.996264)"/>
       <use xlink:href="#CMR17-35" transform="translate(72.787654 0) scale(0.996264)"/>
      </g>
     </g>
    </g>
    <g id="ytick_3">
     <g id="line2d_17">
      <path d="M 40.848487 224.28373 
L 487.248487 224.28373 
" clip-path="url(#p29e570f156)" style="fill: none; stroke-dasharray: 1.85,0.8; stroke-dashoffset: 0; stroke: #808080; stroke-width: 0.5"/>
     </g>
     <g id="line2d_18">
      <g>
       <use xlink:href="#m3f60b30d58" x="40.848487" y="224.28373" style="stroke: #000000; stroke-width: 0.8"/>
      </g>
     </g>
     <g id="text_10">
      <!-- $\mathdefault{1.0}$ -->
      <g transform="translate(16.397905 229.126668) scale(0.14 -0.14)">
       <use xlink:href="#CMR17-31" transform="scale(0.996264)"/>
       <use xlink:href="#CMMI12-3a" transform="translate(45.690477 0) scale(0.996264)"/>
       <use xlink:href="#CMR17-30" transform="translate(72.787654 0) scale(0.996264)"/>
      </g>
     </g>
    </g>
    <g id="ytick_4">
     <g id="line2d_19">
      <path d="M 40.848487 192.876228 
L 487.248487 192.876228 
" clip-path="url(#p29e570f156)" style="fill: none; stroke-dasharray: 1.85,0.8; stroke-dashoffset: 0; stroke: #808080; stroke-width: 0.5"/>
     </g>
     <g id="line2d_20">
      <g>
       <use xlink:href="#m3f60b30d58" x="40.848487" y="192.876228" style="stroke: #000000; stroke-width: 0.8"/>
      </g>
     </g>
     <g id="text_11">
      <!-- $\mathdefault{1.5}$ -->
      <g transform="translate(16.397905 197.719166) scale(0.14 -0.14)">
       <use xlink:href="#CMR17-31" transform="scale(0.996264)"/>
       <use xlink:href="#CMMI12-3a" transform="translate(45.690477 0) scale(0.996264)"/>
       <use xlink:href="#CMR17-35" transform="translate(72.787654 0) scale(0.996264)"/>
      </g>
     </g>
    </g>
    <g id="ytick_5">
     <g id="line2d_21">
      <path d="M 40.848487 161.468725 
L 487.248487 161.468725 
" clip-path="url(#p29e570f156)" style="fill: none; stroke-dasharray: 1.85,0.8; stroke-dashoffset: 0; stroke: #808080; stroke-width: 0.5"/>
     </g>
     <g id="line2d_22">
      <g>
       <use xlink:href="#m3f60b30d58" x="40.848487" y="161.468725" style="stroke: #000000; stroke-width: 0.8"/>
      </g>
     </g>
     <g id="text_12">
      <!-- $\mathdefault{2.0}$ -->
      <g transform="translate(16.397905 166.311663) scale(0.14 -0.14)">
       <use xlink:href="#CMR17-32" transform="scale(0.996264)"/>
       <use xlink:href="#CMMI12-3a" transform="translate(45.690477 0) scale(0.996264)"/>
       <use xlink:href="#CMR17-30" transform="translate(72.787654 0) scale(0.996264)"/>
      </g>
     </g>
    </g>
    <g id="ytick_6">
     <g id="line2d_23">
      <path d="M 40.848487 130.061223 
L 487.248487 130.061223 
" clip-path="url(#p29e570f156)" style="fill: none; stroke-dasharray: 1.85,0.8; stroke-dashoffset: 0; stroke: #808080; stroke-width: 0.5"/>
     </g>
     <g id="line2d_24">
      <g>
       <use xlink:href="#m3f60b30d58" x="40.848487" y="130.061223" style="stroke: #000000; stroke-width: 0.8"/>
      </g>
     </g>
     <g id="text_13">
      <!-- $\mathdefault{2.5}$ -->
      <g transform="translate(16.397905 134.904161) scale(0.14 -0.14)">
       <use xlink:href="#CMR17-32" transform="scale(0.996264)"/>
       <use xlink:href="#CMMI12-3a" transform="translate(45.690477 0) scale(0.996264)"/>
       <use xlink:href="#CMR17-35" transform="translate(72.787654 0) scale(0.996264)"/>
      </g>
     </g>
    </g>
    <g id="ytick_7">
     <g id="line2d_25">
      <path d="M 40.848487 98.653721 
L 487.248487 98.653721 
" clip-path="url(#p29e570f156)" style="fill: none; stroke-dasharray: 1.85,0.8; stroke-dashoffset: 0; stroke: #808080; stroke-width: 0.5"/>
     </g>
     <g id="line2d_26">
      <g>
       <use xlink:href="#m3f60b30d58" x="40.848487" y="98.653721" style="stroke: #000000; stroke-width: 0.8"/>
      </g>
     </g>
     <g id="text_14">
      <!-- $\mathdefault{3.0}$ -->
      <g transform="translate(16.397905 103.496659) scale(0.14 -0.14)">
       <defs>
        <path id="CMR17-33" d="M 1414 2157 
C 1984 2157 2234 1662 2234 1090 
C 2234 320 1824 25 1453 25 
C 1114 25 563 194 390 693 
C 422 680 454 680 486 680 
C 640 680 755 782 755 948 
C 755 1133 614 1216 486 1216 
C 378 1216 211 1165 211 926 
C 211 335 787 -128 1466 -128 
C 2176 -128 2720 430 2720 1085 
C 2720 1707 2208 2157 1600 2227 
C 2086 2328 2554 2756 2554 3329 
C 2554 3820 2048 4179 1472 4179 
C 890 4179 378 3829 378 3329 
C 378 3110 544 3072 627 3072 
C 762 3072 877 3155 877 3321 
C 877 3486 762 3569 627 3569 
C 602 3569 570 3569 544 3557 
C 730 3959 1235 4032 1459 4032 
C 1683 4032 2106 3925 2106 3320 
C 2106 3143 2080 2828 1862 2550 
C 1670 2304 1453 2304 1242 2284 
C 1210 2284 1062 2269 1037 2269 
C 992 2263 966 2257 966 2208 
C 966 2163 973 2157 1101 2157 
L 1414 2157 
z
" transform="scale(0.015625)"/>
       </defs>
       <use xlink:href="#CMR17-33" transform="scale(0.996264)"/>
       <use xlink:href="#CMMI12-3a" transform="translate(45.690477 0) scale(0.996264)"/>
       <use xlink:href="#CMR17-30" transform="translate(72.787654 0) scale(0.996264)"/>
      </g>
     </g>
    </g>
    <g id="ytick_8">
     <g id="line2d_27">
      <path d="M 40.848487 67.246218 
L 487.248487 67.246218 
" clip-path="url(#p29e570f156)" style="fill: none; stroke-dasharray: 1.85,0.8; stroke-dashoffset: 0; stroke: #808080; stroke-width: 0.5"/>
     </g>
     <g id="line2d_28">
      <g>
       <use xlink:href="#m3f60b30d58" x="40.848487" y="67.246218" style="stroke: #000000; stroke-width: 0.8"/>
      </g>
     </g>
     <g id="text_15">
      <!-- $\mathdefault{3.5}$ -->
      <g transform="translate(16.397905 72.089157) scale(0.14 -0.14)">
       <use xlink:href="#CMR17-33" transform="scale(0.996264)"/>
       <use xlink:href="#CMMI12-3a" transform="translate(45.690477 0) scale(0.996264)"/>
       <use xlink:href="#CMR17-35" transform="translate(72.787654 0) scale(0.996264)"/>
      </g>
     </g>
    </g>
    <g id="ytick_9">
     <g id="line2d_29">
      <path d="M 40.848487 35.838716 
L 487.248487 35.838716 
" clip-path="url(#p29e570f156)" style="fill: none; stroke-dasharray: 1.85,0.8; stroke-dashoffset: 0; stroke: #808080; stroke-width: 0.5"/>
     </g>
     <g id="line2d_30">
      <g>
       <use xlink:href="#m3f60b30d58" x="40.848487" y="35.838716" style="stroke: #000000; stroke-width: 0.8"/>
      </g>
     </g>
     <g id="text_16">
      <!-- $\mathdefault{4.0}$ -->
      <g transform="translate(16.397905 40.681654) scale(0.14 -0.14)">
       <use xlink:href="#CMR17-34" transform="scale(0.996264)"/>
       <use xlink:href="#CMMI12-3a" transform="translate(45.690477 0) scale(0.996264)"/>
       <use xlink:href="#CMR17-30" transform="translate(72.787654 0) scale(0.996264)"/>
      </g>
     </g>
    </g>
    <g id="text_17">
     <!-- Tuples per Second -->
     <g transform="translate(9.685876 208.460126) rotate(-90) scale(0.14 -0.14)">
      <defs>
       <path id="CMSS17-75" d="M 2618 2739 
L 2131 2739 
L 2131 972 
C 2131 498 1786 306 1421 306 
C 998 306 960 447 960 709 
L 960 2739 
L 474 2739 
L 474 678 
C 474 179 646 -64 1088 -64 
C 1306 -64 1798 -13 2144 306 
L 2144 0 
L 2618 0 
L 2618 2739 
z
" transform="scale(0.015625)"/>
       <path id="CMSS17-70" d="M 966 333 
C 1178 129 1466 -5 1773 -5 
C 2368 -5 2880 603 2880 1412 
C 2880 2159 2496 2816 1946 2816 
C 1626 2816 1242 2702 954 2472 
L 954 2765 
L 480 2765 
L 480 -1216 
L 966 -1216 
L 966 333 
z
M 966 2100 
C 1018 2176 1235 2415 1587 2415 
C 2035 2415 2394 1960 2394 1412 
C 2394 787 1958 384 1530 384 
C 1402 384 1267 415 1139 523 
C 966 674 966 768 966 857 
L 966 2100 
z
" transform="scale(0.015625)"/>
       <path id="CMSS17-6c" d="M 947 4416 
L 474 4416 
L 474 0 
L 947 0 
L 947 4416 
z
" transform="scale(0.015625)"/>
       <path id="CMSS17-53" d="M 2797 4169 
C 2515 4334 2208 4480 1690 4480 
C 864 4480 333 3879 333 3266 
C 333 3025 403 2753 653 2475 
C 902 2196 1184 2121 1542 2033 
C 1690 1994 1939 1924 1984 1906 
C 2342 1767 2515 1444 2515 1140 
C 2515 742 2202 318 1645 318 
C 1453 318 890 318 358 819 
L 269 318 
C 794 -64 1363 -128 1651 -128 
C 2438 -128 3002 488 3002 1186 
C 3002 1440 2925 1763 2656 2061 
C 2394 2347 2163 2410 1638 2549 
C 1338 2626 1146 2677 986 2873 
C 877 3013 819 3146 819 3317 
C 819 3673 1126 4060 1690 4060 
C 1971 4060 2336 4002 2707 3660 
L 2797 4169 
z
" transform="scale(0.015625)"/>
       <path id="CMSS17-63" d="M 2464 2541 
C 2464 2585 2170 2714 2093 2739 
C 1882 2816 1613 2816 1542 2816 
C 710 2816 211 2093 211 1363 
C 211 595 768 -64 1517 -64 
C 1946 -64 2253 76 2502 242 
L 2464 664 
C 2189 453 1869 337 1523 337 
C 1024 337 698 774 698 1369 
C 698 1831 909 2414 1549 2414 
C 1901 2414 2099 2343 2394 2145 
L 2464 2541 
z
" transform="scale(0.015625)"/>
       <path id="CMSS17-6f" d="M 2829 1356 
C 2829 2176 2221 2816 1504 2816 
C 768 2816 173 2157 173 1356 
C 173 544 787 -64 1498 -64 
C 2227 -64 2829 563 2829 1356 
z
M 1504 337 
C 1050 337 659 709 659 1408 
C 659 2151 1114 2427 1498 2427 
C 1914 2427 2342 2126 2342 1408 
C 2342 683 1926 337 1504 337 
z
" transform="scale(0.015625)"/>
       <path id="CMSS17-6e" d="M 2618 1877 
C 2618 2283 2522 2816 1798 2816 
C 1389 2816 1120 2606 941 2389 
L 941 2758 
L 474 2758 
L 474 0 
L 960 0 
L 960 1559 
C 960 1964 1114 2428 1549 2428 
C 2112 2428 2131 2048 2131 1829 
L 2131 0 
L 2618 0 
L 2618 1877 
z
" transform="scale(0.015625)"/>
      </defs>
      <use xlink:href="#CMSS17-54" transform="scale(0.996264)"/>
      <use xlink:href="#CMSS17-75" transform="translate(56.012199 0) scale(0.996264)"/>
      <use xlink:href="#CMSS17-70" transform="translate(104.217142 0) scale(0.996264)"/>
      <use xlink:href="#CMSS17-6c" transform="translate(152.422085 0) scale(0.996264)"/>
      <use xlink:href="#CMSS17-65" transform="translate(174.602808 0) scale(0.996264)"/>
      <use xlink:href="#CMSS17-73" transform="translate(216.24163 0) scale(0.996264)"/>
      <use xlink:href="#CMSS17-70" transform="translate(283.384285 0) scale(0.996264)"/>
      <use xlink:href="#CMSS17-65" transform="translate(334.191667 0) scale(0.996264)"/>
      <use xlink:href="#CMSS17-72" transform="translate(375.830489 0) scale(0.996264)"/>
      <use xlink:href="#CMSS17-53" transform="translate(438.969374 0) scale(0.996264)"/>
      <use xlink:href="#CMSS17-65" transform="translate(491.01789 0) scale(0.996264)"/>
      <use xlink:href="#CMSS17-63" transform="translate(532.656712 0) scale(0.996264)"/>
      <use xlink:href="#CMSS17-6f" transform="translate(574.295534 0) scale(0.996264)"/>
      <use xlink:href="#CMSS17-6e" transform="translate(621.139158 0) scale(0.996264)"/>
      <use xlink:href="#CMSS17-64" transform="translate(669.344101 0) scale(0.996264)"/>
     </g>
    </g>
    <g id="text_18">
     <!-- $\times\mathdefault{10^{8}}\mathdefault{}$ -->
     <g transform="translate(40.848487 14.623055) scale(0.14 -0.14)">
      <defs>
       <path id="CMSY10-2" d="M 2490 1785 
L 1210 3059 
C 1133 3136 1120 3148 1069 3148 
C 1005 3148 941 3091 941 3020 
C 941 2976 954 2963 1024 2892 
L 2304 1606 
L 1024 320 
C 954 249 941 236 941 192 
C 941 121 1005 64 1069 64 
C 1120 64 1133 76 1210 153 
L 2483 1427 
L 3808 102 
C 3821 96 3866 64 3904 64 
C 3981 64 4032 121 4032 192 
C 4032 204 4032 230 4013 262 
C 4006 275 2989 1280 2669 1606 
L 3840 2777 
C 3872 2816 3968 2899 4000 2937 
C 4006 2950 4032 2976 4032 3020 
C 4032 3091 3981 3148 3904 3148 
C 3853 3148 3827 3123 3757 3052 
L 2490 1785 
z
" transform="scale(0.015625)"/>
      </defs>
      <use xlink:href="#CMSY10-2" transform="scale(0.996264)"/>
      <use xlink:href="#CMR17-31" transform="translate(77.487468 0) scale(0.996264)"/>
      <use xlink:href="#CMR17-30" transform="translate(123.177945 0) scale(0.996264)"/>
      <use xlink:href="#CMR17-38" transform="translate(168.868422 36.153639) scale(0.697382)"/>
     </g>
    </g>
   </g>
   <g id="line2d_31">
    <path d="M 61.139396 255.483943 
L 82.498248 226.501099 
L 125.215951 173.805592 
L 210.651358 80.939889 
L 253.369061 49.978374 
L 466.957578 30.223055 
" clip-path="url(#p29e570f156)" style="fill: none; stroke-dasharray: 5.55,2.4; stroke-dashoffset: 0; stroke: #808080; stroke-width: 1.5"/>
    <defs>
     <path id="md6ba6936fe" d="M 0 3 
C 0.795609 3 1.55874 2.683901 2.12132 2.12132 
C 2.683901 1.55874 3 0.795609 3 0 
C 3 -0.795609 2.683901 -1.55874 2.12132 -2.12132 
C 1.55874 -2.683901 0.795609 -3 0 -3 
C -0.795609 -3 -1.55874 -2.683901 -2.12132 -2.12132 
C -2.683901 -1.55874 -3 -0.795609 -3 0 
C -3 0.795609 -2.683901 1.55874 -2.12132 2.12132 
C -1.55874 2.683901 -0.795609 3 0 3 
z
" style="stroke: #808080"/>
    </defs>
    <g clip-path="url(#p29e570f156)">
     <use xlink:href="#md6ba6936fe" x="61.139396" y="255.483943" style="fill: #808080; stroke: #808080"/>
     <use xlink:href="#md6ba6936fe" x="82.498248" y="226.501099" style="fill: #808080; stroke: #808080"/>
     <use xlink:href="#md6ba6936fe" x="125.215951" y="173.805592" style="fill: #808080; stroke: #808080"/>
     <use xlink:href="#md6ba6936fe" x="210.651358" y="80.939889" style="fill: #808080; stroke: #808080"/>
     <use xlink:href="#md6ba6936fe" x="253.369061" y="49.978374" style="fill: #808080; stroke: #808080"/>
     <use xlink:href="#md6ba6936fe" x="466.957578" y="30.223055" style="fill: #808080; stroke: #808080"/>
    </g>
   </g>
   <g id="line2d_32">
    <path d="M 61.139396 252.845712 
L 82.498248 221.890478 
L 125.215951 183.026835 
L 210.651358 104.652554 
L 253.369061 88.182459 
L 466.957578 52.616604 
" clip-path="url(#p29e570f156)" style="fill: none; stroke-dasharray: 5.55,2.4; stroke-dashoffset: 0; stroke: #000000; stroke-width: 1.5"/>
    <defs>
     <path id="md4c31f4332" d="M -3 3 
L 3 3 
L 3 -3 
L -3 -3 
z
" style="stroke: #000000; stroke-linejoin: miter"/>
    </defs>
    <g clip-path="url(#p29e570f156)">
     <use xlink:href="#md4c31f4332" x="61.139396" y="252.845712" style="stroke: #000000; stroke-linejoin: miter"/>
     <use xlink:href="#md4c31f4332" x="82.498248" y="221.890478" style="stroke: #000000; stroke-linejoin: miter"/>
     <use xlink:href="#md4c31f4332" x="125.215951" y="183.026835" style="stroke: #000000; stroke-linejoin: miter"/>
     <use xlink:href="#md4c31f4332" x="210.651358" y="104.652554" style="stroke: #000000; stroke-linejoin: miter"/>
     <use xlink:href="#md4c31f4332" x="253.369061" y="88.182459" style="stroke: #000000; stroke-linejoin: miter"/>
     <use xlink:href="#md4c31f4332" x="466.957578" y="52.616604" style="stroke: #000000; stroke-linejoin: miter"/>
    </g>
   </g>
   <g id="line2d_33">
    <path d="M 82.498248 261.372453 
L 125.215951 257.825722 
L 210.651358 251.374561 
L 253.369061 250.684239 
L 466.957578 251.118779 
" clip-path="url(#p29e570f156)" style="fill: none; stroke: #1b4f27; stroke-width: 1.5; stroke-linecap: square"/>
    <defs>
     <path id="m06f7cd3ee9" d="M -0 4.242641 
L 4.242641 0 
L 0 -4.242641 
L -4.242641 -0 
z
" style="stroke: #1b4f27; stroke-linejoin: miter"/>
    </defs>
    <g clip-path="url(#p29e570f156)">
     <use xlink:href="#m06f7cd3ee9" x="82.498248" y="261.372453" style="fill: #1b4f27; stroke: #1b4f27; stroke-linejoin: miter"/>
     <use xlink:href="#m06f7cd3ee9" x="125.215951" y="257.825722" style="fill: #1b4f27; stroke: #1b4f27; stroke-linejoin: miter"/>
     <use xlink:href="#m06f7cd3ee9" x="210.651358" y="251.374561" style="fill: #1b4f27; stroke: #1b4f27; stroke-linejoin: miter"/>
     <use xlink:href="#m06f7cd3ee9" x="253.369061" y="250.684239" style="fill: #1b4f27; stroke: #1b4f27; stroke-linejoin: miter"/>
     <use xlink:href="#m06f7cd3ee9" x="466.957578" y="251.118779" style="fill: #1b4f27; stroke: #1b4f27; stroke-linejoin: miter"/>
    </g>
   </g>
   <g id="line2d_34">
    <path d="M 82.498248 263.054713 
L 125.215951 259.588513 
L 210.651358 232.674182 
L 253.369061 216.652 
L 466.957578 214.966672 
" clip-path="url(#p29e570f156)" style="fill: none; stroke: #f7c530; stroke-width: 1.5; stroke-linecap: square"/>
    <defs>
     <path id="mf0f1855c4b" d="M 0 -3 
L -3 3 
L 3 3 
z
" style="stroke: #f7c530; stroke-linejoin: miter"/>
    </defs>
    <g clip-path="url(#p29e570f156)">
     <use xlink:href="#mf0f1855c4b" x="82.498248" y="263.054713" style="fill: #f7c530; stroke: #f7c530; stroke-linejoin: miter"/>
     <use xlink:href="#mf0f1855c4b" x="125.215951" y="259.588513" style="fill: #f7c530; stroke: #f7c530; stroke-linejoin: miter"/>
     <use xlink:href="#mf0f1855c4b" x="210.651358" y="232.674182" style="fill: #f7c530; stroke: #f7c530; stroke-linejoin: miter"/>
     <use xlink:href="#mf0f1855c4b" x="253.369061" y="216.652" style="fill: #f7c530; stroke: #f7c530; stroke-linejoin: miter"/>
     <use xlink:href="#mf0f1855c4b" x="466.957578" y="214.966672" style="fill: #f7c530; stroke: #f7c530; stroke-linejoin: miter"/>
    </g>
   </g>
   <g id="line2d_35">
    <path d="M 61.139396 267.991509 
L 82.498248 255.756528 
L 125.215951 242.758731 
L 210.651358 233.639156 
L 253.369061 223.755873 
L 466.957578 211.341945 
" clip-path="url(#p29e570f156)" style="fill: none; stroke: #3c5488; stroke-width: 1.5; stroke-linecap: square"/>
    <defs>
     <path id="ma4d524ddf8" d="M -0 3 
L 3 -3 
L -3 -3 
z
" style="stroke: #3c5488; stroke-linejoin: miter"/>
    </defs>
    <g clip-path="url(#p29e570f156)">
     <use xlink:href="#ma4d524ddf8" x="61.139396" y="267.991509" style="fill: #3c5488; stroke: #3c5488; stroke-linejoin: miter"/>
     <use xlink:href="#ma4d524ddf8" x="82.498248" y="255.756528" style="fill: #3c5488; stroke: #3c5488; stroke-linejoin: miter"/>
     <use xlink:href="#ma4d524ddf8" x="125.215951" y="242.758731" style="fill: #3c5488; stroke: #3c5488; stroke-linejoin: miter"/>
     <use xlink:href="#ma4d524ddf8" x="210.651358" y="233.639156" style="fill: #3c5488; stroke: #3c5488; stroke-linejoin: miter"/>
     <use xlink:href="#ma4d524ddf8" x="253.369061" y="223.755873" style="fill: #3c5488; stroke: #3c5488; stroke-linejoin: miter"/>
     <use xlink:href="#ma4d524ddf8" x="466.957578" y="211.341945" style="fill: #3c5488; stroke: #3c5488; stroke-linejoin: miter"/>
    </g>
   </g>
   <g id="line2d_36">
    <path d="M 61.139396 265.714903 
L 82.498248 248.343976 
L 125.215951 221.266415 
L 210.651358 176.248726 
L 253.369061 160.413011 
L 466.957578 131.680166 
" clip-path="url(#p29e570f156)" style="fill: none; stroke: #d32f2f; stroke-width: 1.5; stroke-linecap: square"/>
    <defs>
     <path id="m747c1d5137" d="M 0 -3 
L -2.85317 -0.927051 
L -1.763356 2.427051 
L 1.763356 2.427051 
L 2.85317 -0.927051 
z
" style="stroke: #d32f2f; stroke-linejoin: miter"/>
    </defs>
    <g clip-path="url(#p29e570f156)">
     <use xlink:href="#m747c1d5137" x="61.139396" y="265.714903" style="fill: #d32f2f; stroke: #d32f2f; stroke-linejoin: miter"/>
     <use xlink:href="#m747c1d5137" x="82.498248" y="248.343976" style="fill: #d32f2f; stroke: #d32f2f; stroke-linejoin: miter"/>
     <use xlink:href="#m747c1d5137" x="125.215951" y="221.266415" style="fill: #d32f2f; stroke: #d32f2f; stroke-linejoin: miter"/>
     <use xlink:href="#m747c1d5137" x="210.651358" y="176.248726" style="fill: #d32f2f; stroke: #d32f2f; stroke-linejoin: miter"/>
     <use xlink:href="#m747c1d5137" x="253.369061" y="160.413011" style="fill: #d32f2f; stroke: #d32f2f; stroke-linejoin: miter"/>
     <use xlink:href="#m747c1d5137" x="466.957578" y="131.680166" style="fill: #d32f2f; stroke: #d32f2f; stroke-linejoin: miter"/>
    </g>
   </g>
   <g id="line2d_37">
    <path d="M 61.139396 273.443299 
L 82.498248 280.617392 
L 125.215951 281.903834 
L 210.651358 282.223055 
L 253.369061 282.1961 
L 466.957578 282.048282 
" clip-path="url(#p29e570f156)" style="fill: none; stroke: #cc79a7; stroke-width: 1.5; stroke-linecap: square"/>
    <defs>
     <path id="mdb371f09de" d="M 0 -3 
L -0.673542 -0.927051 
L -2.85317 -0.927051 
L -1.089814 0.354102 
L -1.763356 2.427051 
L -0 1.145898 
L 1.763356 2.427051 
L 1.089814 0.354102 
L 2.85317 -0.927051 
L 0.673542 -0.927051 
z
" style="stroke: #cc79a7; stroke-linejoin: bevel"/>
    </defs>
    <g clip-path="url(#p29e570f156)">
     <use xlink:href="#mdb371f09de" x="61.139396" y="273.443299" style="fill: #cc79a7; stroke: #cc79a7; stroke-linejoin: bevel"/>
     <use xlink:href="#mdb371f09de" x="82.498248" y="280.617392" style="fill: #cc79a7; stroke: #cc79a7; stroke-linejoin: bevel"/>
     <use xlink:href="#mdb371f09de" x="125.215951" y="281.903834" style="fill: #cc79a7; stroke: #cc79a7; stroke-linejoin: bevel"/>
     <use xlink:href="#mdb371f09de" x="210.651358" y="282.223055" style="fill: #cc79a7; stroke: #cc79a7; stroke-linejoin: bevel"/>
     <use xlink:href="#mdb371f09de" x="253.369061" y="282.1961" style="fill: #cc79a7; stroke: #cc79a7; stroke-linejoin: bevel"/>
     <use xlink:href="#mdb371f09de" x="466.957578" y="282.048282" style="fill: #cc79a7; stroke: #cc79a7; stroke-linejoin: bevel"/>
    </g>
   </g>
   <g id="line2d_38">
    <path d="M 61.139396 268.935359 
L 82.498248 254.608215 
L 125.215951 235.469963 
L 210.651358 216.652 
L 253.369061 210.182402 
L 466.957578 207.753465 
" clip-path="url(#p29e570f156)" style="fill: none; stroke: #a65628; stroke-width: 1.5; stroke-linecap: square"/>
    <defs>
     <path id="mf0dc38d7ab" d="M 0 -3 
L -2.598076 -1.5 
L -2.598076 1.5 
L -0 3 
L 2.598076 1.5 
L 2.598076 -1.5 
z
" style="stroke: #a65628; stroke-linejoin: miter"/>
    </defs>
    <g clip-path="url(#p29e570f156)">
     <use xlink:href="#mf0dc38d7ab" x="61.139396" y="268.935359" style="fill: #a65628; stroke: #a65628; stroke-linejoin: miter"/>
     <use xlink:href="#mf0dc38d7ab" x="82.498248" y="254.608215" style="fill: #a65628; stroke: #a65628; stroke-linejoin: miter"/>
     <use xlink:href="#mf0dc38d7ab" x="125.215951" y="235.469963" style="fill: #a65628; stroke: #a65628; stroke-linejoin: miter"/>
     <use xlink:href="#mf0dc38d7ab" x="210.651358" y="216.652" style="fill: #a65628; stroke: #a65628; stroke-linejoin: miter"/>
     <use xlink:href="#mf0dc38d7ab" x="253.369061" y="210.182402" style="fill: #a65628; stroke: #a65628; stroke-linejoin: miter"/>
     <use xlink:href="#mf0dc38d7ab" x="466.957578" y="207.753465" style="fill: #a65628; stroke: #a65628; stroke-linejoin: miter"/>
    </g>
   </g>
   <g id="line2d_39">
    <path d="M 61.139396 265.500452 
L 82.498248 247.736852 
L 125.215951 215.650388 
L 210.651358 180.932529 
L 253.369061 180.179578 
L 466.957578 174.594249 
" clip-path="url(#p29e570f156)" style="fill: none; stroke: #984ea3; stroke-width: 1.5; stroke-linecap: square"/>
    <defs>
     <path id="m09f4e5e5e3" d="M -3 3 
L 3 -3 
M -3 -3 
L 3 3 
" style="stroke: #984ea3"/>
    </defs>
    <g clip-path="url(#p29e570f156)">
     <use xlink:href="#m09f4e5e5e3" x="61.139396" y="265.500452" style="fill: #984ea3; stroke: #984ea3"/>
     <use xlink:href="#m09f4e5e5e3" x="82.498248" y="247.736852" style="fill: #984ea3; stroke: #984ea3"/>
     <use xlink:href="#m09f4e5e5e3" x="125.215951" y="215.650388" style="fill: #984ea3; stroke: #984ea3"/>
     <use xlink:href="#m09f4e5e5e3" x="210.651358" y="180.932529" style="fill: #984ea3; stroke: #984ea3"/>
     <use xlink:href="#m09f4e5e5e3" x="253.369061" y="180.179578" style="fill: #984ea3; stroke: #984ea3"/>
     <use xlink:href="#m09f4e5e5e3" x="466.957578" y="174.594249" style="fill: #984ea3; stroke: #984ea3"/>
    </g>
   </g>
   <g id="line2d_40">
    <path d="M 61.139396 265.562161 
L 82.498248 250.328976 
L 125.215951 221.266415 
L 210.651358 192.283633 
L 253.369061 187.917148 
L 466.957578 171.132572 
" clip-path="url(#p29e570f156)" style="fill: none; stroke: #4daf4a; stroke-width: 1.5; stroke-linecap: square"/>
    <defs>
     <path id="m4714ac201b" d="M -3 0 
L 3 0 
M 0 3 
L 0 -3 
" style="stroke: #4daf4a"/>
    </defs>
    <g clip-path="url(#p29e570f156)">
     <use xlink:href="#m4714ac201b" x="61.139396" y="265.562161" style="fill: #4daf4a; stroke: #4daf4a"/>
     <use xlink:href="#m4714ac201b" x="82.498248" y="250.328976" style="fill: #4daf4a; stroke: #4daf4a"/>
     <use xlink:href="#m4714ac201b" x="125.215951" y="221.266415" style="fill: #4daf4a; stroke: #4daf4a"/>
     <use xlink:href="#m4714ac201b" x="210.651358" y="192.283633" style="fill: #4daf4a; stroke: #4daf4a"/>
     <use xlink:href="#m4714ac201b" x="253.369061" y="187.917148" style="fill: #4daf4a; stroke: #4daf4a"/>
     <use xlink:href="#m4714ac201b" x="466.957578" y="171.132572" style="fill: #4daf4a; stroke: #4daf4a"/>
    </g>
   </g>
   <g id="line2d_41">
    <path d="M 61.139396 271.128818 
L 82.498248 264.360271 
L 125.215951 258.051333 
L 210.651358 253.220979 
L 253.369061 252.362326 
L 466.957578 259.787863 
" clip-path="url(#p29e570f156)" style="fill: none; stroke: #ff6f00; stroke-width: 1.5; stroke-linecap: square"/>
    <defs>
     <path id="mf8a6aa2441" d="M -3 -0 
L 3 3 
L 3 -3 
z
" style="stroke: #ff6f00; stroke-linejoin: miter"/>
    </defs>
    <g clip-path="url(#p29e570f156)">
     <use xlink:href="#mf8a6aa2441" x="61.139396" y="271.128818" style="fill: #ff6f00; stroke: #ff6f00; stroke-linejoin: miter"/>
     <use xlink:href="#mf8a6aa2441" x="82.498248" y="264.360271" style="fill: #ff6f00; stroke: #ff6f00; stroke-linejoin: miter"/>
     <use xlink:href="#mf8a6aa2441" x="125.215951" y="258.051333" style="fill: #ff6f00; stroke: #ff6f00; stroke-linejoin: miter"/>
     <use xlink:href="#mf8a6aa2441" x="210.651358" y="253.220979" style="fill: #ff6f00; stroke: #ff6f00; stroke-linejoin: miter"/>
     <use xlink:href="#mf8a6aa2441" x="253.369061" y="252.362326" style="fill: #ff6f00; stroke: #ff6f00; stroke-linejoin: miter"/>
     <use xlink:href="#mf8a6aa2441" x="466.957578" y="259.787863" style="fill: #ff6f00; stroke: #ff6f00; stroke-linejoin: miter"/>
    </g>
   </g>
   <g id="line2d_42">
    <path d="M 61.139396 266.333444 
L 82.498248 248.932656 
L 125.215951 229.994185 
L 210.651358 196.825674 
L 253.369061 187.260317 
L 466.957578 165.521306 
" clip-path="url(#p29e570f156)" style="fill: none; stroke: #56b4e9; stroke-width: 1.5; stroke-linecap: square"/>
    <defs>
     <path id="ma048da06c0" d="M 3 0 
L -3 -3 
L -3 3 
z
" style="stroke: #56b4e9; stroke-linejoin: miter"/>
    </defs>
    <g clip-path="url(#p29e570f156)">
     <use xlink:href="#ma048da06c0" x="61.139396" y="266.333444" style="fill: #56b4e9; stroke: #56b4e9; stroke-linejoin: miter"/>
     <use xlink:href="#ma048da06c0" x="82.498248" y="248.932656" style="fill: #56b4e9; stroke: #56b4e9; stroke-linejoin: miter"/>
     <use xlink:href="#ma048da06c0" x="125.215951" y="229.994185" style="fill: #56b4e9; stroke: #56b4e9; stroke-linejoin: miter"/>
     <use xlink:href="#ma048da06c0" x="210.651358" y="196.825674" style="fill: #56b4e9; stroke: #56b4e9; stroke-linejoin: miter"/>
     <use xlink:href="#ma048da06c0" x="253.369061" y="187.260317" style="fill: #56b4e9; stroke: #56b4e9; stroke-linejoin: miter"/>
     <use xlink:href="#ma048da06c0" x="466.957578" y="165.521306" style="fill: #56b4e9; stroke: #56b4e9; stroke-linejoin: miter"/>
    </g>
   </g>
   <g id="patch_3">
    <path d="M 40.848487 294.823055 
L 40.848487 17.623055 
" style="fill: none; stroke: #000000; stroke-width: 0.8; stroke-linejoin: miter; stroke-linecap: square"/>
   </g>
   <g id="patch_4">
    <path d="M 487.248487 294.823055 
L 487.248487 17.623055 
" style="fill: none; stroke: #000000; stroke-width: 0.8; stroke-linejoin: miter; stroke-linecap: square"/>
   </g>
   <g id="patch_5">
    <path d="M 40.848487 294.823055 
L 487.248487 294.823055 
" style="fill: none; stroke: #000000; stroke-width: 0.8; stroke-linejoin: miter; stroke-linecap: square"/>
   </g>
   <g id="patch_6">
    <path d="M 40.848487 17.623055 
L 487.248487 17.623055 
" style="fill: none; stroke: #000000; stroke-width: 0.8; stroke-linejoin: miter; stroke-linecap: square"/>
   </g>
   <g id="text_19">
    <!-- Tuple of 16B with 8 Partitions -->
    <g transform="translate(159.841067 11.623055) scale(0.168 -0.168)">
     <defs>
      <path id="CMSS17-66" d="M 1075 2368 
L 1722 2368 
L 1722 2737 
L 1062 2737 
L 1062 3559 
C 1062 4014 1408 4092 1606 4092 
C 1670 4092 1850 4092 2080 4009 
L 2080 4429 
C 1933 4461 1754 4480 1613 4480 
C 1018 4480 602 3993 602 3359 
L 602 2737 
L 160 2737 
L 160 2368 
L 602 2368 
L 602 0 
L 1075 0 
L 1075 2368 
z
" transform="scale(0.015625)"/>
      <path id="CMSS17-31" d="M 1818 4288 
L 1696 4288 
C 1350 3940 947 3890 538 3890 
L 538 3520 
C 723 3520 1024 3520 1325 3667 
L 1325 369 
L 570 369 
L 570 0 
L 2573 0 
L 2573 369 
L 1818 369 
L 1818 4288 
z
" transform="scale(0.015625)"/>
      <path id="CMSS17-36" d="M 2496 4101 
C 2227 4210 2035 4229 1856 4229 
C 1024 4229 250 3368 250 2006 
C 250 265 986 -128 1510 -128 
C 1798 -128 2086 -39 2362 280 
C 2643 617 2752 898 2752 1389 
C 2752 2179 2362 2880 1779 2880 
C 1357 2880 992 2657 768 2376 
C 832 3258 1254 3840 1862 3840 
C 2029 3840 2246 3816 2496 3710 
L 2496 4101 
z
M 774 1369 
C 774 1420 774 1452 781 1548 
C 781 2045 1069 2491 1536 2491 
C 1837 2491 1990 2332 2106 2135 
C 2240 1886 2246 1650 2246 1388 
C 2246 1140 2246 891 2099 637 
C 1978 439 1818 267 1510 267 
C 902 267 800 1114 774 1369 
z
" transform="scale(0.015625)"/>
      <path id="CMSS17-42" d="M 570 4416 
L 570 0 
L 2163 0 
C 3034 0 3667 574 3667 1200 
C 3667 1685 3251 2176 2502 2317 
C 3334 2558 3501 3040 3501 3313 
C 3501 3883 2874 4416 1997 4416 
L 570 4416 
z
M 1088 2496 
L 1088 4059 
L 1824 4059 
C 2483 4059 3002 3724 3002 3306 
C 3002 2926 2592 2496 1766 2496 
L 1088 2496 
z
M 1088 357 
L 1088 2107 
L 1939 2107 
C 2630 2107 3162 1679 3162 1206 
C 3162 772 2694 357 1984 357 
L 1088 357 
z
" transform="scale(0.015625)"/>
      <path id="CMSS17-77" d="M 4013 2752 
L 3526 2752 
L 3187 1601 
C 3117 1358 2918 685 2893 371 
L 2886 371 
C 2874 564 2765 1024 2586 1633 
L 2259 2752 
L 1818 2752 
L 1498 1658 
C 1338 1101 1216 627 1203 371 
L 1197 371 
C 1171 749 909 1633 870 1773 
L 582 2752 
L 83 2752 
L 915 0 
L 1402 0 
C 1734 1096 1990 1943 2010 2370 
C 2022 2160 2131 1707 2195 1484 
L 2618 0 
L 3181 0 
L 4013 2752 
z
" transform="scale(0.015625)"/>
      <path id="CMSS17-69" d="M 979 4183 
L 442 4183 
L 442 3648 
L 979 3648 
L 979 4183 
z
M 947 2739 
L 474 2739 
L 474 0 
L 947 0 
L 947 2739 
z
" transform="scale(0.015625)"/>
      <path id="CMSS17-74" d="M 1069 2368 
L 1901 2368 
L 1901 2737 
L 1069 2737 
L 1069 3520 
L 614 3520 
L 614 2737 
L 109 2737 
L 109 2368 
L 602 2368 
L 602 749 
C 602 384 685 -64 1107 -64 
C 1427 -64 1722 25 2003 172 
L 1901 548 
C 1747 414 1562 337 1363 337 
C 1082 337 1069 696 1069 856 
L 1069 2368 
z
" transform="scale(0.015625)"/>
      <path id="CMSS17-38" d="M 1933 2222 
C 2419 2380 2669 2760 2669 3134 
C 2669 3722 2157 4229 1504 4229 
C 826 4229 333 3708 333 3144 
C 333 2780 576 2403 1069 2241 
C 442 1997 250 1512 250 1149 
C 250 446 819 -128 1498 -128 
C 2202 -128 2752 455 2752 1138 
C 2752 1557 2502 2000 1933 2222 
z
M 1504 2432 
C 1075 2432 787 2712 787 3136 
C 787 3566 1075 3840 1504 3840 
C 1901 3840 2214 3591 2214 3136 
C 2214 2687 1907 2432 1504 2432 
z
M 1504 267 
C 1139 267 749 517 749 1156 
C 749 1813 1184 2043 1498 2043 
C 1843 2043 2253 1800 2253 1156 
C 2253 491 1830 267 1504 267 
z
" transform="scale(0.015625)"/>
      <path id="CMSS17-50" d="M 2106 1856 
C 2874 1856 3501 2453 3501 3158 
C 3501 3850 2899 4453 2067 4453 
L 570 4453 
L 570 0 
L 1107 0 
L 1107 1856 
L 2106 1856 
z
M 1926 4096 
C 2669 4096 2995 3627 2995 3157 
C 2995 2720 2694 2226 1926 2226 
L 1094 2226 
L 1094 4096 
L 1926 4096 
z
" transform="scale(0.015625)"/>
     </defs>
     <use xlink:href="#CMSS17-54" transform="scale(0.996264)"/>
     <use xlink:href="#CMSS17-75" transform="translate(56.012199 0) scale(0.996264)"/>
     <use xlink:href="#CMSS17-70" transform="translate(104.217142 0) scale(0.996264)"/>
     <use xlink:href="#CMSS17-6c" transform="translate(152.422085 0) scale(0.996264)"/>
     <use xlink:href="#CMSS17-65" transform="translate(174.602808 0) scale(0.996264)"/>
     <use xlink:href="#CMSS17-6f" transform="translate(247.470743 0) scale(0.996264)"/>
     <use xlink:href="#CMSS17-66" transform="translate(294.314366 0) scale(0.996264)"/>
     <use xlink:href="#CMSS17-31" transform="translate(354.170138 0) scale(0.996264)"/>
     <use xlink:href="#CMSS17-36" transform="translate(401.013761 0) scale(0.996264)"/>
     <use xlink:href="#CMSS17-42" transform="translate(447.857385 0) scale(0.996264)"/>
     <use xlink:href="#CMSS17-77" transform="translate(541.424538 0) scale(0.996264)"/>
     <use xlink:href="#CMSS17-69" transform="translate(605.244083 0) scale(0.996264)"/>
     <use xlink:href="#CMSS17-74" transform="translate(627.424806 0) scale(0.996264)"/>
     <use xlink:href="#CMSS17-68" transform="translate(661.256373 0) scale(0.996264)"/>
     <use xlink:href="#CMSS17-38" transform="translate(740.690428 0) scale(0.996264)"/>
     <use xlink:href="#CMSS17-50" transform="translate(818.763165 0) scale(0.996264)"/>
     <use xlink:href="#CMSS17-61" transform="translate(875.896297 0) scale(0.996264)"/>
     <use xlink:href="#CMSS17-72" transform="translate(918.215764 0) scale(0.996264)"/>
     <use xlink:href="#CMSS17-74" transform="translate(950.125536 0) scale(0.996264)"/>
     <use xlink:href="#CMSS17-69" transform="translate(983.957103 0) scale(0.996264)"/>
     <use xlink:href="#CMSS17-74" transform="translate(1006.137826 0) scale(0.996264)"/>
     <use xlink:href="#CMSS17-69" transform="translate(1039.969393 0) scale(0.996264)"/>
     <use xlink:href="#CMSS17-6f" transform="translate(1062.150116 0) scale(0.996264)"/>
     <use xlink:href="#CMSS17-6e" transform="translate(1108.993739 0) scale(0.996264)"/>
     <use xlink:href="#CMSS17-73" transform="translate(1157.198682 0) scale(0.996264)"/>
    </g>
   </g>
  </g>
 </g>
 <defs>
  <clipPath id="p29e570f156">
   <rect x="40.848487" y="17.623055" width="446.4" height="277.2"/>
  </clipPath>
 </defs>
</svg>
